<mxfile host="app.diagrams.net" agent="Mozilla/5.0 (Windows NT 10.0; Win64; x64) AppleWebKit/537.36 (KHTML, like Gecko) Chrome/132.0.0.0 YaBrowser/25.2.0.0 Safari/537.36" version="26.2.3" pages="2">
  <diagram name="Страница — 1" id="zWehQkpN4xfnUat3dDcE">
    <mxGraphModel dx="1002" dy="575" grid="1" gridSize="10" guides="1" tooltips="1" connect="1" arrows="1" fold="1" page="1" pageScale="1" pageWidth="827" pageHeight="1169" math="0" shadow="0">
      <root>
        <mxCell id="0" />
        <mxCell id="1" parent="0" />
        <mxCell id="2JQgbApqm6Oe2Ly4wv3b-4" value="" style="edgeStyle=orthogonalEdgeStyle;rounded=0;orthogonalLoop=1;jettySize=auto;html=1;" edge="1" parent="1" source="2JQgbApqm6Oe2Ly4wv3b-2" target="2JQgbApqm6Oe2Ly4wv3b-3">
          <mxGeometry relative="1" as="geometry" />
        </mxCell>
        <mxCell id="2JQgbApqm6Oe2Ly4wv3b-2" value="Начало" style="rounded=1;whiteSpace=wrap;html=1;arcSize=50;" vertex="1" parent="1">
          <mxGeometry x="360" y="140" width="120" height="40" as="geometry" />
        </mxCell>
        <mxCell id="2JQgbApqm6Oe2Ly4wv3b-8" value="" style="edgeStyle=orthogonalEdgeStyle;rounded=0;orthogonalLoop=1;jettySize=auto;html=1;" edge="1" parent="1" source="2JQgbApqm6Oe2Ly4wv3b-3" target="2JQgbApqm6Oe2Ly4wv3b-7">
          <mxGeometry relative="1" as="geometry" />
        </mxCell>
        <mxCell id="2JQgbApqm6Oe2Ly4wv3b-3" value="Ввод&lt;div&gt;a, b, f,&amp;nbsp; &amp;nbsp;&amp;nbsp;&lt;/div&gt;" style="shape=parallelogram;perimeter=parallelogramPerimeter;whiteSpace=wrap;html=1;fixedSize=1;" vertex="1" parent="1">
          <mxGeometry x="360" y="200" width="120" height="60" as="geometry" />
        </mxCell>
        <mxCell id="2JQgbApqm6Oe2Ly4wv3b-12" value="" style="edgeStyle=orthogonalEdgeStyle;rounded=0;orthogonalLoop=1;jettySize=auto;html=1;" edge="1" parent="1" source="2JQgbApqm6Oe2Ly4wv3b-7">
          <mxGeometry relative="1" as="geometry">
            <mxPoint x="420" y="370" as="targetPoint" />
          </mxGeometry>
        </mxCell>
        <mxCell id="2JQgbApqm6Oe2Ly4wv3b-7" value="" style="rounded=0;whiteSpace=wrap;html=1;" vertex="1" parent="1">
          <mxGeometry x="360" y="290" width="120" height="60" as="geometry" />
        </mxCell>
        <mxCell id="2JQgbApqm6Oe2Ly4wv3b-10" value="" style="shape=image;verticalLabelPosition=bottom;labelBackgroundColor=default;verticalAlign=top;aspect=fixed;imageAspect=0;image=data:image/png,iVBORw0KGgoAAAANSUhEUgAAAIgAAABJCAYAAADmDm5DAAAAAXNSR0IArs4c6QAAAARnQU1BAACxjwv8YQUAAAAJcEhZcwAADsMAAA7DAcdvqGQAAAbbSURBVHhe7dx9SBtnHAfw70ahji6mUDCFYh0jVddR05Y1gVaUrquloJGy6gqVMPriaGsHm8lgzbIOW+mo7YYvG9SufzTI1sXCpg6K2YYvG0oyaI1dxVgonpvDjAqeVIxQuD13uamxydGW5HLi7wPmyf2S4KHfPPfcPXf3gsCAkDhelFtCYqKAEEUUEKKIAkIUUUCIIgoIUUQBIYooIEQRBYQoooAQRRQQoogCQhRRQIgims1VFAbPz0nPVq/RI22V9HRFoR4knjt12JSegczMTPZTjKtDcn2FoYDEs82B+9P3ce2AuFCAvGypuuJQQBRxGP6BNYcsyE2LVFYaCoiSQR+8rCncaYIhUllxKCAKuCEfAiwaBaYsubLyUEDi4hH0t7O2HCa9H631dlScdMLdG4q8nEKhP1rRXO+E0+WGdyzMdrZ48DPyi4km7uaSWHxCjU4n6IxG4Y0T14WBh7PC7MNuoWaXTtjTNCC/R22jQqd9j2A8ztZnYkqYejggXDleLBS/ydbT5hEm5HclEgUknkCDkM8CYjzuYf+WBb7P2T9DVy10TskF1UwJnR8YWWDPCN2P5JKor4atD1vPS8kJLW1i4vh//FF5ogxPjkDaEHggP1VJuOsiTn0TQtHZShSukYsMP8VLbfn2HKlNNApITAvjD/NrkUoEB25QbHNh0EuFGHh4P9yC9PT0Z/qpuKE0tuHgaWpECIWw7oyOa3CwjT2WwbI5Sfvhck9CogwIF40xtuuz3cIZcVyiY938rFxTw0SbcET8vbsa2JotNipct7K69XrUZjCRqAeJZXwEAfaFNpmzo45/hP298LDWUF0Ei5oHzsaCaBXb3XmI2pCM++HtYutTYJI2g/xIkPVfiUUBiWVdhvQHzzKsjyxLwvD97EbIUIbLxwqh6oFVwyuwiu3LL0X93jAbJ0kbQmn8EYD7Yy9GpVcShwISS9pWWCoA371hFosIvqsO5+qz4Pr2K1g3yEW1bDSjaC9rH83Or094xA27Qxx/mJG1gcVmsBc9BQUwRV5OmBRM9y+TKfQxL5wnneC22ZDDe+F5kIdPv3ChLFvVvmPB4vWZ6UFgtQ2X7evhKX8LnTmnkTuzFravHTAv2sNJBFUDwt+yI/OdZnnJimt/tqBso7yoUWGexxxWQ69PUTCWkNZnlR76+SBEvnDJ+rKloAcJonnfDthnavHb76cT3iWSxFJ/DMJzGOln7X4LhWMZUD0g4ds9EDcylUk68kcSS/WABId62aMVltfjHookGqJyQDgEvAEgz4LsjBB6WhrZyLwC9lo3elI/i05iUDcgfBCDXazNGsDVk27Mmcvx0YXLKMFVlOTb4Z2MvI1oh6p7MeEuJzJKG4EDTbh7zYYsebcsdLMCm460w/XrNBw7IrW4xlpRddrN+qJnpUfZhRbYNsuL5OmIAVHLQFO+oNMVC1eCckE2+t1hVs8XGgJygWiGij0IB3fpFlRNLj3+IU6PZ+Jghwu/3HfALFdTSZx+X86mp6flZwkgxUQNU51CtThlfd4nF2Ry3fhZt6DmDDp5Our1IP3nkL6vDpXf/4VL+xd2cfmOKmQe7oTjp7twFbDxyB0Oadty2IghjhE3jjpa8a+8+PRoDPJcpJioIDL+OCx4OLkgmRA8NtarGC8KUr8inpCTpJNvyfNRaTeXw0iffPwjanKOw6h05ZoZeeLSj27g3ZIVe5GSFqkTkMejGO4ADCVL51/yUHSuEIa+VtS5jqJm8n24dmtj1pREqDYGEaepodfHPBPrySlsohUpmO4ny4nqk3VkeaGAEEUUEKKIApJUYQQ76lAl3hWgX75i5XEI/pvN86c5SFfnaxgFJIn4W5+gcaYctSVzqNr3NhpveeGsbACXXSqd5lC+th0H95xC+7j8AQ2igCQNh7YWA2yHsqBfK04c+OG8FEBpYy3K8gxsj98As9kChFoR/CfyCS2igCTLZBDB7YWRI8RBP3s0ofbL6OtWQn8Ps0cDoOHba1JAkmVdEWqrzUgDG3N09bAcWGER0zIvjOHb4hW3S+8goC0UkGQLD2Ng0XzTvLAP3nrWHivEVg3PLlBAku2uX7ojgNWUG33hdb8Xjayt3GuRTm3ghxJ/ZX4iUECSjLvXK934pWj74jlqHr0dLB4GB0p2s3iEe9BQ68OU/KqWUECSKoRAnzj+KEDuq3JJMopAB2tKLNLmRTzNga8ojXGrq9SjgCQVh+ANlo+KJeMPtkdTftYKQ6AdDa6jqB5/D+cXnWWnJTSbm2TSaQ7xrryf4dnGRtunOVBAiCLaxBBFFBCiiAJCFFFAiCIKCFFEASGKKCBEEQWEKKKAEEUUEKKIAkIUAP8By+A35Tb6oNMAAAAASUVORK5CYII=;" vertex="1" parent="1">
          <mxGeometry x="372.00000000000006" y="297.5" width="83.84" height="45" as="geometry" />
        </mxCell>
        <mxCell id="2JQgbApqm6Oe2Ly4wv3b-23" style="edgeStyle=orthogonalEdgeStyle;rounded=0;orthogonalLoop=1;jettySize=auto;html=1;exitX=0.5;exitY=1;exitDx=0;exitDy=0;entryX=0.5;entryY=0;entryDx=0;entryDy=0;" edge="1" parent="1" source="2JQgbApqm6Oe2Ly4wv3b-13" target="2JQgbApqm6Oe2Ly4wv3b-18">
          <mxGeometry relative="1" as="geometry" />
        </mxCell>
        <mxCell id="2JQgbApqm6Oe2Ly4wv3b-13" value="" style="rounded=0;whiteSpace=wrap;html=1;" vertex="1" parent="1">
          <mxGeometry x="300" y="370" width="240" height="60" as="geometry" />
        </mxCell>
        <mxCell id="2JQgbApqm6Oe2Ly4wv3b-15" value="" style="shape=image;verticalLabelPosition=bottom;labelBackgroundColor=default;verticalAlign=top;aspect=fixed;imageAspect=0;image=data:image/png,iVBORw0KGgoAAAANSUhEUgAAAZ4AAABRCAYAAADitcDaAAAAAXNSR0IArs4c6QAAAARnQU1BAACxjwv8YQUAAAAJcEhZcwAADsMAAA7DAcdvqGQAABnySURBVHhe7Z0NUFtlusf/e29nTKfScMeZht3elo6lpVuVdF0La61kKjUdR6DjUrreLZd1act1BepaQNdixrVYdQFdS9idgkUl4upNqr0EZ73Eahv2Tp2EHUvobYfQaYfU7R3ibGcIU4Z0dOfc95wcIAkhnycf0OfnHE7OOfH05Hnf8/6f9+t5v8cxQBAEQRAJ4p/EPUEQBEEkBBIegiAIIqGQ8BAEQRAJhYSHIAiCSCgkPARBEERCoVFtKYzjUy2MI+KBD9koflqNTPGIIAgiYVwxQdtrFw98yS6qgfpO8SAIJDwpjPV3y7H9iHjggwanJuqRKx4RxIJg0gHrSS30snq07FKIJ4kFx0Azlhc0ige+aD6fQP1m8SAIJDwpjCA8Q20Y+ONOZIjnPNwGuVwmfiaIVMcFa7cOFsgxbqiG/d8voZuEZ+HynRuuyZvigci1HlT9pBrKMIWH+nhSnSVLkS6XM6Hx3kh0iIWEHLllNagp24EN6eIpYuGyROZXHvHbUvFieJDwEAThhRv23g5ou62snsLqKldM0B3VouOETTgmCCkg4SEIYpYhPUwZ5chzbEdJSQN63Hkof3o/sm0P4uBJp/glgogNEh6CIGawWd3I3+yE4yKw6UkNyjfKxSvAzX+IHwgiRmhwQQojDC642IlLXaWgrlgiYbhMqFtlgvrrFqgF3bGieV0tZB/9BTU5wjeCDPWfZe7QWicMv1iHniIaXLDouGZA2Q/3hj24gIRHKtwuuISBHtKNOCPhIZKB+3QDVhzfhPPvl3rmig00Y93LCpzqKYdiEpAtE74WBSQ8i5YIhYea2mLGBdPB5Vi+YhVWrWLbU71wiFcIYiFiv9gP5Zb1MxOUrV90YMNjKmReN0L3BQ0xIGKHhCdm5FC/MYGJv7YIEzq9X1iCWHg4MWIdQ3GuUjxmOTw9E/JJGzq6gR1Fs30+kcA3zTUerELTWcDSUoW6I1qYrogXiVsOamqTCNendVj1sw7U901Ac794MkaoqY1ICpNuYJlvc7Hb5YaM5o8R80FNbcnAjcGzHWxfibyNnjMEsWDxEx0eEh1CSkh4JMGOodNsV5SH7OhaIgiCIG4ZSHik4IoNpiFP/47imhm6ow2o/kUdGrvNcH4nfocgCIIQIOGRAJd9CGa2z7S9haoPbyLv8WdxpKkIOFaErc+aKNQIQRCEFyQ8MTPdv8PIr0dnrRrZCjnkig3YsBZwHrch8MoVBEEQtyYkPDEj9u9sa4GmzHsgtRvgm9lyZLjNc4IgCIJgkPDEynT/jjoP2eIpAZcdll5AUZSH2RkRBJHCnOtA0c6iOdv2TcuxfLm0265ummZ9K0PCEyPT/Tvqe33lxXXWhA4oUH6/GNyKIFKdH+1A6RIzzKentzHkPHkcH5m/xtdfR7hdGsCpT3px4u0W1O8rRq7fcsimY0bYxM/ErQcJT4zYvwo0f8cFcy87ryhHfq4McDthG6EhBkSqk4ny33eidGa2sh3aFh3sS/wX/QpjU2QjN18F9a5KaN7oxqnBCXzzv6fQVqXyTIYeaoX+tFv4V4hbDxKemLDB8inb+c/fuWaCvpvpzr4dUPG682UrmofoJSMWAKtL8UqTV6SMgUbsec3M91jGjGx1Lspf7cX5v3aicrMT2jY9xTW8RSHhiYWrI7CI83d84rP93yiMbLc7l29mc6D3A2D/I6kb9Mb1pQm2KCtk9s+MsE+KB4uEaOyxmOygeOwPeP+52aZj59F9qDohnUTI1peixXgKmvG3YGTvT1yZtMPUT/IWKfHOzyQ8sTA6zARG4RNQUeAeNY7kK2AxNKOh4jDGqjVQRR1KPlpccAwYYey1whGkEHWcrMbe/vSoIy5kZ99E08+aYU35QjdGe0y64HLxW2Dff+HYIRxkyP3169DMxNxywvD8YRiuiodSsCwX9b/fDdPJKGtTThtMvUaYhoKsijppRXO5Fq41FLZ3Bn75liD5eJq452c+SGjEfGvhDmelcWlpAbb9PdyY+LXFzxQ3Pj4lfvaHvzbOTX0rHkaB5TVmz3J9FPYc5fT7s7g9bX1cz8uFXNpD7dyweMWbKWsTV/BQKzcoHkfL1BeHuLv369m/mqrEYo8xrme/V/5+po8bF6/4k2p2GLf3cV1vtnKtbGs3nOGG/y5eCBdbK1fg/W5LkFf8mZr3/ZkfIZ0eOMTpTe1cxY+zuFpToBTh0/xurvbP86VWKjPODRr0nCXS9ArKONf3jFda/jx0Po0oP/9Nz+1h922yischiE54ZhjkWn/M/5CtXNNX4ilCMqIVnnFjFUuTCq7nbBdXImS0Q9wZ//d7apBreoilmzXyF38u41zPr9K4PR+kpvRIYg9W2PEvbOE7wX5jqthhnDvzcglX8psurs98huszNHF7lPzvLmAFcWTPNmqo4LIEm3m2gtcszKVKJqzMeSCNy2qxcGd+63mmQGky9jF77qictuQz+l6J8LuyWqSWeYa9XXAmtraFc+8I8nNChcfh+cfSspo4i3iKkI7ohGeM05ez/+8B5p1OjXJ9x1q5rrNzvb4xwx4u7addknnnU+bDXFYWK9BviCeiZNzUxHVdEA8kQRp7jH7ArqdlhXSwUsEO/G+ZIxDsXa0QWikKuFabeC4sPLXFaeHhnczDZ5MoPcwB4IWQr8mMW7u41mM93LC/racsXNMDWdxhc4Kf80IX1xSw9hUZU7Z2rupXrRLXeDyM/7lWSMfDZ8UTIQg7PydSeKZ/RLDmByJ6ohKeqTPcIT5NXjgTxDP1eI17DFL6g9Lcky80w828YSGJPaabKQLUlOaQbDtMNw1mcRUf+z7D4Jtbhfc167fBbBGAG8yG3k3rWaz2+DfxWoIZfaeQPUMh13VZPBEAoVxKhjPMRFHad0pqprgzL/BpWMv1hV1gh5mfIxSemAYX2Id6hH3xFiVoNYAUYWQI/WynWrsG866gMtQP/ZAK6nulHGmnRN4jgLG3H0G6exOPJPaww3Kc7R7Pw4aQy9Kkih2c6L8yJn72kLHS08nuvPJNZIFrl6mg+ZNGWGFXwGlA7UuGJAyFdrEyh5+unYPMH3jOzMUFy2cdLK1y2bcIX6JZviU++TkG4bHB0ss/itQFGBENrotmmPvNMP3FIswIl7vswrG53z6nkHFc5L+Tiw1+s8nn4HLA1K1Fo6YB2hM24T5ul2veUUiZG0uBk4MYlmLSR4xIao8hC0xsp8rNgPszHRqeKkPdUSPs85TeybWDAsWNvWhr7sYn+3xHW7qnl+i4LfLogbLNNXj9xRnpgfPDvah9N0HSM+mAVUg7E8xWdrz+JhxWT/rarvkb2eMkFN8VxNEQcQ4Y0HG0AQ0aHUxX2X34EV/JHJXoNKPjYLUnb8XjOaJcviUe+Tl64RHnsECRH7oAI+KMG6MXhzB0bgimL/gZRErcNs68G3Y89I17TpBS52X2ncc2+M498sM9pMWu+/bCoijGgbpnUbxMj72FRbhn1SpoB8Qv+aH41w3sbz+GRjzHyUNae3iECRhua4KOOVqa5uPYf4cem++rg+m65zveJN0OChXK/6PYz6t1wdbP2wIoLxKjB0SEDMraTnQ+Jh4yTAf2onkgAeo6PopBPu1O/zf6+TKHJZSLPz5nx7i/vFx1MOlhKb42WO5mDlX9dmx9a0pYwuTZXysx+nIpih5dhVVPGZJTU72iQ9lLDuQ9V4McaxkKW6SZtOtNtMu3xCU/i01uETPTvxO07TxZjHL6mkKusDjybc87gQbaJofI+3im2/eDtW+Lne3B+uXEYbQlPqOFmE1/zt+7guuZ74HEwSax9NFI28cjhT2m+3cK2HN55XSxTTvg6KCUswNDTNOsWId7zwxSELeHmG1jHEgRNl95BhYE7W8QRh9uDTKAgk/PLC7Nv8P87GHh98Q0kizqPh5+9FgV1yMMJrBwTbx9JZ+WMt2/w+z3nncOEPN/sHcknPycqD6emf4d5YaQVdrEk4nS1l709kS+dT/hE2N6geGA7UO2ezw7SG3GjalxtlOkz9Mv54DupQZYFfWoedz7LuMY41tWtqmgnM9d/mfPzuZIlV4eKewx3b9zAOWb5+Z0m80x10NONTvwEymfaYDjkSM48fvSILYIg9WleKO10jekjiYxix067DZmawWrzcxfX3Pf4BMzExl3eI79cZ9uQtVxJ9QvVvpM6naNe37B7nuT8P5ft8Cythxq9szu/j50sGwTTq3UPdSB6p1laPgsnHwWw/ItccjPUQrPdP+OEnnrI6+0LwYChXoPtcWd6WYGZWaQTOuEk8+A8+Du16HxM/bh8XzkeZez1zxNq4p8ZWwFF8P9ZTPuCWAffltXYURjQeBry5dXwxigaWteJLDHTP/OFqXvPa7yUSsY/KJ/wonISYwdHDA8swe67DZ88nYNlBJE0JA/8jLeb/Dq7zlei44v49/kJjSJYieUQZr2XdeD9Ts5oG/TshRXoXiLby72ONKlyNsYwo2+ZkBZwDRhW0EjjBXrAl9bfg+058R7+HOHGkdqc5kD74bltI49XyWK80PlKhdMx+qgO22EtjuMjv8UW74lOuERCyEoipF3iw4dmZiYiHiLN+7Lg0JhmHfnGs+JgCig2CZ+DIB9gM/4QOWWTT41WfeI595SeISy++txPoB9+O3S28XQfB742sREG4rn8WQDIYU9nOweNvad/Lt8CyqHne/lDjFaLgTxt4Mb1t/tRfvK4/ifP5YjWxQdd4hwKaGRIffp2ZA6uQ2dqLk/WiuEiwPDvMlzmBMRpEyW3xHELXLaYOadqhy1n3ixe59luT5YbX6alaXoDpgmbPtcg+K3LwW+NnEeNT8S7zEf100wvM7qdLVFCKk7zN1RP9mC8m0sn+xVB3GsPKTa8i1RCY+LeYGCt1ek9FVPtxPWEx3QHtXBet0Fx2c69lkLXb+/HrtgO6FF4/ONaJ4ZUeGG85xnpAq/2UemRyGx7ZwT7uuzx/aQ3p4duoq5C1qFs5W9y/vICxOng/cGVMgJOlZShqXpbHdjiq9k++HEiBD7au49hqx69lf0CFk62/lRQP78w7NTZoZ6DRJD7PZgRdKIgf1lXvZ6z7EHB8y9wmuM0vwABV1K2MEN+7t1aFryCj55UTVbK3OZ8EK9KbSHHApZOtasVSC3thcfPcd763HGPQq70FSU41vm+CG7nU9MF6Zueo59uGoHn5pz7nHNChO793Rt3sXKnkQ0HfrDi4COF4FtecyebjgGgj+HLKcSbT3dqA+tUrEt3xKH/ByV8Mz07+Rm+zYzyOTIzv0X2DUGtL9rgntLOWqezofr0C5o+TJAgFX9K0tgXLkfmlc1qFlpwnZhRIUM8jsz4OgsQuP5pchcmYkN/+jHCweZm3OnnN06A0vPMRG7ko6MkHbORvnbgftwQm0Lt49neo5DqGHScqxYzXZXA83lUCBTKGDlWOrT4GvHoJdH6DrdjLcuBHiznXxUbhUUEdRK4ocU9mAWUaj4v0j3znNXzDAyzzn3RQ12B7p3CtjBcaIOjZP70S004czitlnQlx2s6TEcPDWpQ3gFnd6iFk/E+Vghh0nfoWCWZ85sIOdUsQbF/P72pb42uehxpD21eRt0z5swKlxJJA70vKtjtbEDKM5nT8dqP83vSOUEx7h8Sxzyc+TC47YyleT9pWymnv7eHhOP1ZnMazBjzZZSsWqfgYy17IePeHwsvg/h0OkdKBar5rJtO7H7+H/CzC7L5NnYuascVqsDrmUyKDIzkT7SD8d19t0lt2HqOzUOPKGEfInwvxI+jMLWy3YhhknzabRmLStMTw6zrD6XnAfrWaHk7TEyr+ilOjRfZB/XZwjXzL1u5iHNLW6cfxtmf4NN7ksk0tgj8141lLBg+Ip4YpLVpl9rhO3xTnTWKgMWgsm2g3ugGXsrdDA+/yBW+PU1rChsZp5rhvjN6HCcqMIe0w68H+tAhQjwNHkyrzvoMGnGDzKFiaO2ywFSc3Uu1A+zvVft1j2iQ10970jnMmeXpeZQP8z5+Qnt7/DghJNvBnyE72thwn5cj+wni6UR9RiXb4lHfg5beBwflnky74rtaBRqL3Y0bOUz8zo0B+g0k80jDq5v7HAqhmE8qhWa4bRHLUhvVCFDfIPlW9QoP9mD/mvs3+x3Qf0qYODX03BbYL09sR1gC4prI7Ax8Vbmrg/pzXoKU+tsYeqFLL8eJ5rl0B6oRuPRBuwtPAh7cTdOvVoKxX91oPH5Kpgeqg/Yx+C4aAD2qbApUGmcaCSyB3L2o61ZNmOPsgd2wXTX+/hrx/yFbnLt4ERvWyP7NfMTS5OJ48RebH8eeOWdeuQmcKkPT5NnpV+TZwBkm6DaBxgvjM6Iyyz8CqsnUHOuDvs0WjQe3IWyd9JR//n70Gy2Qv9mA6pfd+NZv4m3iSEHan6C7ld6NB4og279EdRI1e0S4/ItccnP4rBqCbFwTT7juT3jxKfHt/NRY4WAjcJRIDzzJkre6+O6jp3hpi53cYXs+xZze9D4TEnn78Nc33ueEPStx/TcGXvs0esimscjzEMINzBiGPGXpsY9yzqIhwI3+HPz3d9zzypjbL9bsvkr8bJHyGUuUswOEiIsR5BVwekd4omEIc4hCzOorRCNPESstimWluM+849iX8ZEilhtc59LCmJZviXM/JzIWG3RoMj/GSqdZti8vEtXrw6mmQZ2OfKLamB6qRaOH+ZBdqcKpQo9artlUAVtq08ertON2FWpw5giBzkbM+A+exhF963C9npTwOYbybhuhe5oB0xX3J5RVtOdhCFRovhJNYwf9M3/fDLP2vk+d1vGn5vn/gMmtDrrUfpwbI0DMrkSimg96UTYI1QzbyrYIR5cNaDq533Y8ac/oJTvE4s7bth7O6DttsLlHsVgL6B+TBVW05784VLUowN9/YGGi3iQsbSU+9hXFl76BmOZAsr53o8wmftcUsD/tvmeK8Tvlig/z0EUIGkYt3Dtz5RwdzPlu/untVy71cL1vVDB3ZeVxmXlVXCHxLVApuxdXNWjFVyToY/VEpq4JpOfH8NHFPbyWPj1KUp8ZtumELzSz5m9PRtKviCsdS8CE7zGM7uwU8XHg0KtMqJ/Kx7r8cTo7cVGKtgjFewQB9h73fRQFldhkP4dnHchOFsrt5WlpVBzYTWJrKxari+CZQIW8no8qUME+TnCGk8cmtrCh69WzlfFm7rhlSG/nYqtChxHhKZDZvAs/xAXMy/O4TBC6QcmuPBMcWd+y8Tt0cNcj+EwV/gov96MeClMFtcKpMm3R+qvxBoFN3jRidMCcJe7uJL5Qm7x19Lu4yqO9XDt++/jqoyRSgjv/C3UFUhTgxRegZSYFh7eM/MpsMSESEvbw+mjXLskdB/PODds0nN64yA3FqUwj35cxZXEUqjwsbse9a/xJYsk2iOl7CAVnpp7XETnxjDXXh68D27KYWFOhJ47czlK8eBF86dVSeiTWgREmp9JeBLMt2PcmffauZ4Lfi+HGFgvaFDNEEQeJDQ6xs/2cYNRvttj1jNzV4Bc4ERjj8VnhymW/wpiDyoaiL8zQdjNB+pkBZt4Km4wgeszL6o6aEKIOD9HKDwJH1yw6FiigKqsEsUbfTvfXDazMEYeZTuhim22XtyR36+GMsq+Q8Vm1UwolsVCNPZYXHbgJ4gWYrvUc3UmHTC3V6PoJ9vR+KkTymo1ZiO+xYll2VAHii5BBCXe+ZmEJy7YoHtTx1KvFJ2/kWgSGEEkCGGC6JF0tLRUIvs7F1yuaDYn7AN8iCujZ8Gxws1Y9/17UFSvEyaL8yMJd2+jWXm3Kt/jqz3iZ0ISRG/xeDqOfNSNmpzoh1daf7cc2y924lJXachJkAQhBXzUg8KC4BNQJeHhNpz/qFy62hSRXPio3T/cC+XnE6gXg8cGg4RHYoSZ3S8vhUbfgvL1sY3pJ+EhEsp1Exqf0sLqNf1l7KIZdk+0q9AosqHaGF44nsx/a0Obz3pPxIKGhCd5CN7ib9xMdDRQTYeUmXTBvcxvImaYkPAQBLEgiFB4qI9HIoRgg68Brxi9RAcumDQHYQrXYyQIgrgFIOGRgqsG1B1xYb/OL3CiexCWLzYgRZanIQiCSAlIeGKFX8/+l3uhO9mAB7/vG4J++YoiNCvXILYg9ARBEIsLEp4YcX7aisYB8SAQG2NddIsgCGJxQcITI4pd3QHWV/fanov7FDmCiB/XjKguaPCKHh8Fkw5Yu+tQd4I6OwkPJDwEQQRBjpxf7kReVLOgXUxwtNCeNKPP0IEx8SxBkPAQBDE/K1WoLMuNMvqGHLllNagp24EN6eIpgmCQ8BAEERBnvw7adiPsk+IJgpAImkCawtAEUiJZuE83Q3t7DYpthWiQdeJEWSY7aYOhvT90k9nKfOzfpfSaNO2E4Rfr0FN0Cd27KCcvSihyweKBhIdIDm6Y3zVhwxNK9JVsh+Pp89DkxxL+iYRn0UORCwiCiA0ZVE8UQzFkxFvOAyiOSXQIYi5U40lhqMZDJBPb0QdRjTb8pSqb1YFk7D87jH8wwSFen5fVatQ8li0e8FCNZ9FDTW2LBxIeInnY0LzuBSj6erHzQgfMWypRPBODMFJIeBY91NRGEETsyCBfLYeLiY7uux1Ri47jUy0aD1ah6SxgaalC3REtTFfEi8QtC9V4UhihxjPUhoE/7vSL93Yb5HJqdyfijRuuSSZAi2xpcyJGvuPzxU3xQORaD6p+Uk1NbYsBQXiOiAc+aHBqoj7+69UTBEH4M9CM5QWN4oEvGhKehY9rxIzBgJMmMrApPzvK2eQEQRAxcN0O84XAs7ky7lIhO4xmWRIegiAIIqHQ4AKCIAgioZDwEARBEAmFhIcgCIJIKCQ8BEEQREIh4SEIgiASCgkPQRAEkVBIeAiCIIgEAvw/ut+okbVq9JwAAAAASUVORK5CYII=;" vertex="1" parent="1">
          <mxGeometry x="308" y="378.09" width="224" height="43.83" as="geometry" />
        </mxCell>
        <mxCell id="2JQgbApqm6Oe2Ly4wv3b-29" style="edgeStyle=orthogonalEdgeStyle;rounded=0;orthogonalLoop=1;jettySize=auto;html=1;exitX=0.5;exitY=1;exitDx=0;exitDy=0;entryX=0.5;entryY=0;entryDx=0;entryDy=0;" edge="1" parent="1" source="2JQgbApqm6Oe2Ly4wv3b-18" target="2JQgbApqm6Oe2Ly4wv3b-28">
          <mxGeometry relative="1" as="geometry" />
        </mxCell>
        <mxCell id="2JQgbApqm6Oe2Ly4wv3b-36" style="edgeStyle=orthogonalEdgeStyle;rounded=0;orthogonalLoop=1;jettySize=auto;html=1;exitX=1;exitY=0.5;exitDx=0;exitDy=0;entryX=0;entryY=0.5;entryDx=0;entryDy=0;" edge="1" parent="1" source="2JQgbApqm6Oe2Ly4wv3b-18" target="2JQgbApqm6Oe2Ly4wv3b-32">
          <mxGeometry relative="1" as="geometry" />
        </mxCell>
        <mxCell id="2JQgbApqm6Oe2Ly4wv3b-18" value="" style="rhombus;whiteSpace=wrap;html=1;" vertex="1" parent="1">
          <mxGeometry x="340" y="450" width="160" height="80" as="geometry" />
        </mxCell>
        <mxCell id="2JQgbApqm6Oe2Ly4wv3b-19" value="" style="shape=image;verticalLabelPosition=bottom;labelBackgroundColor=default;verticalAlign=top;aspect=fixed;imageAspect=0;image=data:image/png,iVBORw0KGgoAAAANSUhEUgAAAKgAAAAoCAYAAABq+7FsAAAAAXNSR0IArs4c6QAAAARnQU1BAACxjwv8YQUAAAAJcEhZcwAADsMAAA7DAcdvqGQAAAgfSURBVHhe7ZwPTBvXHce/XZHijRLTRRpIUWuUf1SrwEmXmK1lZgrUWZTgqCFNq4HIShZPU4D0T9CUEKRpXroEUq0BprZUo8NlagtZCZAF4WZSTLRGNirBltb1iIjwFmt2FSRfFMRNQ3p7d344TjAM2xgOeB/p6b33u3fm3t3vfn/ePfEIoYDDUSnfYDWHo0q4gnJUDVdQjqrhCspRNVxBOaqGKyhH1XAF5agarqAcVZOwgkq3XHCPsw5HBYhwX/dCYr3lTsIKKg41wn6LdTgqQID9XRdV05VBcl38lAvWzWuxdm2UYulBgA1bqXg/Los+97Wb0XCDDeLMSXIVNMWAupt3cffuNZzeIgv0qHPIfVpazMhQBq1cdC+3K3P915/KQ4KydtyU5373Jmq2hUScuVmcJOmfI3CO0DrDjIJV+GAEj02pzTvzVvxLudAsioKKf3eiR24U65GtSFYTbjj75FqPvC3LXD2nAnBdaEDledeiJWGLoqCCp1upzc/qoVVaqwgf9R4eWlPvkZcbEi07RC/s5w+jaNdJOLUHcfqYARp2KNksgoJSC9Irp0MFMD2z+hyc6GHe42UDlp1+jrvRc7YMRRVNGNv2Ji799Q+oel4Xl5GRxgW4BhxwyOVGYN4WOPkKKsefigUx4qkNIdFqQhhqUWqz/qlFszqJIvkcaKkuxo7X7cDu3+PKn8/BYsyI7/oDDjQdykHOnnp03/DAQ4vgjyFAkHfUJ4K/s5TUu1gnCsHLb5C0tDSSduoqmWSy1cMwaXyOzj1tL2kbZaKk4yT15R3Ez3qxEBztJ42vFJLCVxpJ/2iQSeNn0t1ISjalkcIzThLvryXdgobjz2VkQRaMcPwZi/eQIAZC7lCY7QvdRADCIHWVIwuzHC96etBwaAfK3h5DrvUSrrRWwbQhwWxBcqPptVrYUYW6SkPcuUeSFXQ6/lRnBiu8VxRlEX3uknN2/hlsOP6MZfVCEiFcs6F+bzF6ZvlCJ/ro7577GYq7BCaJH/kePFFhR1btNfQ2WlCwfmHMiHS9A9ZBuWXHuZ8Uo3gfKxU2xHTVzJLGzZwu/nYHKZXd+6Z66nhWH84zm5TwprQzVodL3TQ9b67QSb7vadR1ziR2Fx90d9NztpO9Ve+Rq7cXJhAbbs5X5n60c4wEg8H75R4bME+SakHjsiArBnV7j0i0uWbUtA2i/dUseOr2Klm7/VaC4YPkVyqdjmb9Wu39kqqI501SFTQcfxqyH4xBJHnBtwVN521wjYvwfmaj7SbYBh76Oj/hhb3ditoTVrT0CqENEPRc9/RyxYAAYWS67YDbR+O3cJ+NXyqm40+YZln/ZPM+a4X1LRsc/3djQsR9+syL4BQTLyDaDSZUtV7BJWsuxpoPo+hQA3o88d3FrO/uU2op0etkljRuZnXxk9TVKBnsdtLoZrIwkyTo7SBHaXZbca6DfKWYfTnjzb8/9h49f2cp6fCGumMflJDC5mHaoucKbTR0KCSNrkkyec9Prv4mn2w/c5UEZe90x0ka91eQNnfiWWgi+DuPhlYvftEdJYP1k/7jJeTXDnbkv2Ok7UgJaRNC3Zkufox0HCkkJy8zxx38io6n4cMCufhZuTNMus+UksL9J0mbK8ZfnBymzy+NbDrV/+D8/U4yfJu158GCW9DwDp7vFMGqWBABtflyghG5g0cD7ZM66OBA1rMvIlsx+5nI3Ejd4kjIlHi76mHdeBDGJ5UudDtfQubbduo46blb9uFgmQtOrwhNagay1qdD+JxaFTm+T52EZKpGee4SfLOK2L21mSYDCu1leEK+HxG7t6SBFhy9XgCzkV1jig67TBpUnu6MusNL7GvC4UA5LLtZqKDNpuPzQu1ksk4P8y/baVZvQeaQFQdKKtFCvdy8kkSNHjWfXkONrxZFJcdhpZbf+voBFJ9w4j8x5GELrqDTO3hmlug7eDQprPEQAZ8dGB9AB52Y7NaauvzIq9QjXTmqRcHucvT0DtAH6oVjwoTT6ISDZr2SywXtD/TKqEUnvHsrSonYvSV+LSCwkb6QrB+ma4zOZiaCpwVI/+bSLdNpdTD9vBkXPqnD1q9tOD7fb/FaPSytgxi01aH6p+WofvMCelurYFjHjs+DJC8zxc+aFPo4dSaUH6tCVbiYqNUNoTWaYen6BP19Dkg5R2B+AXi/j1rVf2Rgl9q/KT66Bhj1I5RGRECnTI/MYM1jS/TCPQx9JoYDNWiO9Vt8KkuQ4njDVKug+uerYeh1YHiCCSjuP9qoi2dojSg+Zof1hBfZBg10xheR8dEbsKUWhJVYrWQYX4IlIMAbsRDv93lheNVEc/6Z6H94EIYuJ9wR90Ievxp49FcU1o6LiS8/hTt9P55bzwTzQXSh5WQ93h8ahfvf40jZkI7xd2nM2fclRof9CKzfisJ8E/blDKG27iMaW6bCd+VDCN+3YE/GdEyQgsxH7uGdb+/BWz+if/zxdEh/+RuyDlugf5wNUSvf2gjjj+/gg1MfYoxO59bF36F1qgptr+VBM+Pe5OF7zxhRsNWB354dgmbdBDwXL+OLOz4M2DrwxSSNR/OzIiyaD59fFKF/4Wk8xiTLmYT/u13gQhlsunbU7GCCJCCJIrWY2ihuRYIkaaCZPjBBI6PUOPzIEqLMjbrA2WLxB5iSIFIrqpV9pSRCSol2ngsNh7wob6MehUmWMwkrqORzw0sztuwYAl9OMhEh3JCg2xbn7iOVwf8/KEfVqDZJ4nBkuIJyVA1XUI6q4QrKUTVcQTmqhisoR9VwBeWoGOB/6p/7Bw+hRTgAAAAASUVORK5CYII=;" vertex="1" parent="1">
          <mxGeometry x="368" y="477.62" width="104" height="24.76" as="geometry" />
        </mxCell>
        <mxCell id="2JQgbApqm6Oe2Ly4wv3b-25" value="Конец" style="rounded=1;whiteSpace=wrap;html=1;arcSize=50;" vertex="1" parent="1">
          <mxGeometry x="450" y="770" width="120" height="40" as="geometry" />
        </mxCell>
        <mxCell id="2JQgbApqm6Oe2Ly4wv3b-27" value="да" style="text;html=1;align=center;verticalAlign=middle;resizable=0;points=[];autosize=1;strokeColor=none;fillColor=none;" vertex="1" parent="1">
          <mxGeometry x="414" y="530" width="40" height="30" as="geometry" />
        </mxCell>
        <mxCell id="2JQgbApqm6Oe2Ly4wv3b-30" style="edgeStyle=orthogonalEdgeStyle;rounded=0;orthogonalLoop=1;jettySize=auto;html=1;exitX=0.5;exitY=1;exitDx=0;exitDy=0;entryX=0.5;entryY=0;entryDx=0;entryDy=0;" edge="1" parent="1" source="2JQgbApqm6Oe2Ly4wv3b-28" target="2JQgbApqm6Oe2Ly4wv3b-25">
          <mxGeometry relative="1" as="geometry" />
        </mxCell>
        <mxCell id="2JQgbApqm6Oe2Ly4wv3b-28" value="Вывести I" style="shape=parallelogram;perimeter=parallelogramPerimeter;whiteSpace=wrap;html=1;fixedSize=1;" vertex="1" parent="1">
          <mxGeometry x="360" y="640" width="120" height="60" as="geometry" />
        </mxCell>
        <mxCell id="2JQgbApqm6Oe2Ly4wv3b-37" style="edgeStyle=orthogonalEdgeStyle;rounded=0;orthogonalLoop=1;jettySize=auto;html=1;exitX=0.5;exitY=1;exitDx=0;exitDy=0;entryX=0.5;entryY=0;entryDx=0;entryDy=0;" edge="1" parent="1" source="2JQgbApqm6Oe2Ly4wv3b-32" target="2JQgbApqm6Oe2Ly4wv3b-35">
          <mxGeometry relative="1" as="geometry" />
        </mxCell>
        <mxCell id="2JQgbApqm6Oe2Ly4wv3b-32" value="" style="rounded=0;whiteSpace=wrap;html=1;" vertex="1" parent="1">
          <mxGeometry x="532" y="460" width="120" height="60" as="geometry" />
        </mxCell>
        <mxCell id="2JQgbApqm6Oe2Ly4wv3b-33" value="" style="shape=image;verticalLabelPosition=bottom;labelBackgroundColor=default;verticalAlign=top;aspect=fixed;imageAspect=0;image=data:image/png,iVBORw0KGgoAAAANSUhEUgAAAJEAAAAhCAYAAADZEklWAAAAAXNSR0IArs4c6QAAAARnQU1BAACxjwv8YQUAAAAJcEhZcwAADsMAAA7DAcdvqGQAAAZoSURBVHhe7ZoPSJRnHMe/W21Jed1YkUE1B0qxCoU2lJFLhkOIqZE3Y6jIlm3hrEHTGFiCM2XLZJS5LY0RXkFwVksFw9twnmNuOtbuhEkntd1Fbd424d4w7mIbz37v+z7maf65ex9NWc8H3nvf5/c+PPf8+T6/5/e87/sYIyCRCPA4P0skhpEikggjRSQRRopIIowUkUQYuTt7ZAlCUe5pV0uWmRG1WLs0hPREC5ogvF82o3UwyNOzg3KlFMuXr8K6devoKEbbb/yGQaSIFjDB7mN4xVKI/Fo7fNw2G5i31+LOnR9Q+yIlEpKx/hndbhQpojnBDetROxSeMkpUXDJ25e/H56XpiOG2WUPxYvA7Om9PRqJuMYwU0ZygwDeg0GIkyJp0VH9ajZz1UdwwewSvOtBI57e3bNANAkgRPaK4B7rpNwvJm8y6QQBxESlutDYcQel7h9DY5tZduM8Ba/k+7Cu3om9Yy7WwIdduP3cSR8oP4eQFl9aGoDILnsQoap8encv+88Jld+nx0CofHNT2Q+/ko7TaCoeR4Evd4hvGa2PFBTWsy+tnfv811lRgYmmlZay4qIk5hzysqyKNmbKbmIdnX4gEXHXMEp/GKu0eaoOfedrLmOXVDBZvMrGaPp4pYnpZTYGNDfFURIx0scrsStZBfdpRYZqb/vN3sBJqnyl3Nyt+s4Z1uIeo7UOsqyqFmeJLWMdfPF+YCIjIw5pyy1jXCE8SvR9RxUwZrMFNias12kCYttYxp347clSRZmWwjIiPPNb0My9jOkhAaVRHy5nQYfIwW67ajt2sxZAKVIyLyHncwupc6tUQs9GkNMXXGO+/KQh0llH7qOwCEujf3EgMNedp9kgnj3ERuRrY7jPXeEKFd/6oaEaczHa8jtlcAe3ufQJOVpdtYQ3hDPKcQpMgWx2kStY1ropUv61kzxLxAEZF5GQN+236/95oYhYa0JTj4UjIwzoO57GMogbmnNDdk+GsJ48zOtlD8JxXRZTCRRw+YstZKKMu8nAXm7YdJCLbqQ7mCaOxc0nAUal7yon1vWVjeWSPr51p8LinUMuI8NgchjA8Zy2UN8wBvVrHNvOyZ/YiNHmyKO8DKwQtnwfITp6vl1vCZfZE1KcvXyXtfm5Y2Dhr47VOn1jfUVdf1imicoGYSIN7w7DjIe6JDpAXm6nao5O9aoJUuD2+YgYnMAliu7O7Y/sXV18rfEhFwoaQLeNd2gXcHMujDLSi8UQEO45BKwp3ZCIz4iMf1gFexqT4MNivbkMm1Jfo77PRbw6SN0bRFs0Hd0j9Hxr93bD1A+k7UxFLSWXABd+01YhF+pFzaPs4B7EzPVIa6J30+ZDSTWODGBS8nIwo2pf6fuI77XDgYooYf3uJ5nnSTqlxEXeRE4JAz9k8VunguqY1vrKZdkD2EmYitc83vVVUX1Mes93iBo1rrEFtB4+H1DYa86winihAu1rVSxazFm2XpMaQApuTCejxELXbyw0aY0G85p8CXawsgvob9kTu/kaaz0lIfm41zZxWnP6ajBtj8JR+G7jZjGM9O1CwTZ8a7h4g67UYOHtakB73rGabTxJeOkjzTkFAf5FNKHB8UIpjqgdbv1q752gLYluS+MO4yFDwxy/kJTNTkbgC8F44De+eAuFXEzpeDPbw50Pj3pd54fmCTq8nIUFNXbYCb2SG/aplUQXBryNixZLF6PM8gdilP+L0pWhUt5Vh7eX38dn3wxjuaUbVNzEo/zAXcU/q+VcmJGK10on6nH+RVZ+LDUt1+3yxODYZqU/bcfhEJ3x/fgtr1UVEFTWgcsstXPqkB8O/2zGwtRwHXrg/LSLgNnouK0jcuQnR3BI+0ViJ67BduQ782grrvULUF8RB4EuNMf5x4VLhedzYU4bqlDXcqLIC0Uv70P7Vbdy9fhEti97F0V1rw/9P7pGMEVAfMo4PwwJ+soU8OwrF31rMTEUttA8IsIBI3DqbaG1QaxTCyIPtigzRwJoQrsPkqOMzVanTjd10iAXWUWaYzeMjuSgz2ZbxxDh8tDxYsT8nHeZ+G2yD3DzfaG0wUzAZwrIH2xUZZsRsnFBmpAjXYXLU8Zmq1KnHbnoe4peNCuwHLXA8v5eWtVi8tTdJrJMlC4aH/nlsUAmS4qV8/k/Ib6wlwsjviSTCSBFJhJEikggjRSQRRopIIowUkUQQ4D8jEc3/JuD6GgAAAABJRU5ErkJggg==;" vertex="1" parent="1">
          <mxGeometry x="545.47" y="480" width="90.6" height="20.62" as="geometry" />
        </mxCell>
        <mxCell id="2JQgbApqm6Oe2Ly4wv3b-42" value="" style="edgeStyle=orthogonalEdgeStyle;rounded=0;orthogonalLoop=1;jettySize=auto;html=1;" edge="1" parent="1" source="2JQgbApqm6Oe2Ly4wv3b-35" target="2JQgbApqm6Oe2Ly4wv3b-39">
          <mxGeometry relative="1" as="geometry" />
        </mxCell>
        <mxCell id="2JQgbApqm6Oe2Ly4wv3b-44" style="edgeStyle=orthogonalEdgeStyle;rounded=0;orthogonalLoop=1;jettySize=auto;html=1;exitX=1;exitY=0.5;exitDx=0;exitDy=0;" edge="1" parent="1" source="2JQgbApqm6Oe2Ly4wv3b-35">
          <mxGeometry relative="1" as="geometry">
            <mxPoint x="420" y="270" as="targetPoint" />
            <Array as="points">
              <mxPoint x="692" y="580" />
              <mxPoint x="692" y="270" />
            </Array>
          </mxGeometry>
        </mxCell>
        <mxCell id="2JQgbApqm6Oe2Ly4wv3b-35" value="Есть разрыв 2 рода?" style="rhombus;whiteSpace=wrap;html=1;" vertex="1" parent="1">
          <mxGeometry x="512" y="540" width="160" height="80" as="geometry" />
        </mxCell>
        <mxCell id="2JQgbApqm6Oe2Ly4wv3b-38" value="нет" style="text;html=1;align=center;verticalAlign=middle;resizable=0;points=[];autosize=1;strokeColor=none;fillColor=none;" vertex="1" parent="1">
          <mxGeometry x="480" y="458" width="40" height="30" as="geometry" />
        </mxCell>
        <mxCell id="2JQgbApqm6Oe2Ly4wv3b-41" style="edgeStyle=orthogonalEdgeStyle;rounded=0;orthogonalLoop=1;jettySize=auto;html=1;exitX=0.5;exitY=1;exitDx=0;exitDy=0;entryX=0.5;entryY=0;entryDx=0;entryDy=0;" edge="1" parent="1" source="2JQgbApqm6Oe2Ly4wv3b-39" target="2JQgbApqm6Oe2Ly4wv3b-25">
          <mxGeometry relative="1" as="geometry">
            <mxPoint x="510" y="760" as="targetPoint" />
          </mxGeometry>
        </mxCell>
        <mxCell id="2JQgbApqm6Oe2Ly4wv3b-39" value="Вывести&lt;div&gt;сообщение об ошибке&lt;/div&gt;" style="shape=parallelogram;perimeter=parallelogramPerimeter;whiteSpace=wrap;html=1;fixedSize=1;" vertex="1" parent="1">
          <mxGeometry x="532" y="640" width="120" height="60" as="geometry" />
        </mxCell>
        <mxCell id="2JQgbApqm6Oe2Ly4wv3b-43" value="да" style="text;html=1;align=center;verticalAlign=middle;resizable=0;points=[];autosize=1;strokeColor=none;fillColor=none;" vertex="1" parent="1">
          <mxGeometry x="590" y="608" width="40" height="30" as="geometry" />
        </mxCell>
        <mxCell id="2JQgbApqm6Oe2Ly4wv3b-45" value="нет" style="text;html=1;align=center;verticalAlign=middle;resizable=0;points=[];autosize=1;strokeColor=none;fillColor=none;" vertex="1" parent="1">
          <mxGeometry x="650" y="548" width="40" height="30" as="geometry" />
        </mxCell>
        <mxCell id="2JQgbApqm6Oe2Ly4wv3b-46" value="" style="shape=image;verticalLabelPosition=bottom;labelBackgroundColor=default;verticalAlign=top;aspect=fixed;imageAspect=0;image=data:image/png,iVBORw0KGgoAAAANSUhEUgAAABMAAAAZCAYAAADTyxWqAAAAAXNSR0IArs4c6QAAAARnQU1BAACxjwv8YQUAAAAJcEhZcwAADsMAAA7DAcdvqGQAAAElSURBVEhLY/wPBAxUAkxQmipg1DDSAd7Y/PH2JsOlqy8YvoM4vBoM5obiDBxgGewAu8teHmSYHK/LoOvdxbDx/CWGS0B888UPqCQeAHIZMvh+cdL/YBXe/84dJ/9/gIoRC1AN+37hf5cT739elar/B75AxUgAKGH2Y381g5j/ZAYGcXUGey0JqCgQCIcy9MyLY1CHcnECsJFQcGGKzX9eXt7/2asf/P/w4QMCE+lK1Aj48QJMycvLM/Dz8yMwN1iYIEAxTEHLH0z/+AOmSAdQF0IANAJUanaixuSLk/8vPIGy8QDMRPvxIsOswhSG2R/tGfzs5BkYHh5kOPXBnqG2O5fBTBiqBgfAnQO+fmT4CPIuOzDM8CV7JDBaOJIORg0jFTAwAAB681+VwSAqcAAAAABJRU5ErkJggg==;" vertex="1" parent="1">
          <mxGeometry x="431" y="232" width="11.4" height="15" as="geometry" />
        </mxCell>
      </root>
    </mxGraphModel>
  </diagram>
  <diagram id="xgTjbKUaqczqVg3L-GYO" name="Страница — 2">
    <mxGraphModel dx="739" dy="383" grid="0" gridSize="10" guides="1" tooltips="1" connect="1" arrows="1" fold="1" page="0" pageScale="1" pageWidth="827" pageHeight="1169" math="0" shadow="0">
      <root>
        <mxCell id="0" />
        <mxCell id="1" parent="0" />
        <mxCell id="PyBMAkxGsIOwwzF0yhr_-1" value="" style="edgeStyle=orthogonalEdgeStyle;rounded=0;orthogonalLoop=1;jettySize=auto;html=1;" edge="1" parent="1" source="PyBMAkxGsIOwwzF0yhr_-2" target="PyBMAkxGsIOwwzF0yhr_-4">
          <mxGeometry relative="1" as="geometry" />
        </mxCell>
        <mxCell id="PyBMAkxGsIOwwzF0yhr_-2" value="Начало" style="rounded=1;whiteSpace=wrap;html=1;arcSize=50;" vertex="1" parent="1">
          <mxGeometry x="360" y="140" width="120" height="40" as="geometry" />
        </mxCell>
        <mxCell id="PyBMAkxGsIOwwzF0yhr_-3" value="" style="edgeStyle=orthogonalEdgeStyle;rounded=0;orthogonalLoop=1;jettySize=auto;html=1;" edge="1" parent="1" source="PyBMAkxGsIOwwzF0yhr_-4" target="PyBMAkxGsIOwwzF0yhr_-6">
          <mxGeometry relative="1" as="geometry" />
        </mxCell>
        <mxCell id="PyBMAkxGsIOwwzF0yhr_-4" value="Ввод&lt;div&gt;a, b, f,&amp;nbsp; &amp;nbsp;&amp;nbsp;&lt;/div&gt;" style="shape=parallelogram;perimeter=parallelogramPerimeter;whiteSpace=wrap;html=1;fixedSize=1;" vertex="1" parent="1">
          <mxGeometry x="360" y="200" width="120" height="60" as="geometry" />
        </mxCell>
        <mxCell id="PyBMAkxGsIOwwzF0yhr_-5" value="" style="edgeStyle=orthogonalEdgeStyle;rounded=0;orthogonalLoop=1;jettySize=auto;html=1;" edge="1" parent="1" source="PyBMAkxGsIOwwzF0yhr_-6">
          <mxGeometry relative="1" as="geometry">
            <mxPoint x="420" y="370" as="targetPoint" />
          </mxGeometry>
        </mxCell>
        <mxCell id="PyBMAkxGsIOwwzF0yhr_-6" value="" style="rounded=0;whiteSpace=wrap;html=1;" vertex="1" parent="1">
          <mxGeometry x="360" y="290" width="120" height="60" as="geometry" />
        </mxCell>
        <mxCell id="PyBMAkxGsIOwwzF0yhr_-7" value="" style="shape=image;verticalLabelPosition=bottom;labelBackgroundColor=default;verticalAlign=top;aspect=fixed;imageAspect=0;image=data:image/png,iVBORw0KGgoAAAANSUhEUgAAAIgAAABJCAYAAADmDm5DAAAAAXNSR0IArs4c6QAAAARnQU1BAACxjwv8YQUAAAAJcEhZcwAADsMAAA7DAcdvqGQAAAbbSURBVHhe7dx9SBtnHAfw70ahji6mUDCFYh0jVddR05Y1gVaUrquloJGy6gqVMPriaGsHm8lgzbIOW+mo7YYvG9SufzTI1sXCpg6K2YYvG0oyaI1dxVgonpvDjAqeVIxQuD13uamxydGW5HLi7wPmyf2S4KHfPPfcPXf3gsCAkDhelFtCYqKAEEUUEKKIAkIUUUCIIgoIUUQBIYooIEQRBYQoooAQRRQQoogCQhRRQIgims1VFAbPz0nPVq/RI22V9HRFoR4knjt12JSegczMTPZTjKtDcn2FoYDEs82B+9P3ce2AuFCAvGypuuJQQBRxGP6BNYcsyE2LVFYaCoiSQR+8rCncaYIhUllxKCAKuCEfAiwaBaYsubLyUEDi4hH0t7O2HCa9H631dlScdMLdG4q8nEKhP1rRXO+E0+WGdyzMdrZ48DPyi4km7uaSWHxCjU4n6IxG4Y0T14WBh7PC7MNuoWaXTtjTNCC/R22jQqd9j2A8ztZnYkqYejggXDleLBS/ydbT5hEm5HclEgUknkCDkM8CYjzuYf+WBb7P2T9DVy10TskF1UwJnR8YWWDPCN2P5JKor4atD1vPS8kJLW1i4vh//FF5ogxPjkDaEHggP1VJuOsiTn0TQtHZShSukYsMP8VLbfn2HKlNNApITAvjD/NrkUoEB25QbHNh0EuFGHh4P9yC9PT0Z/qpuKE0tuHgaWpECIWw7oyOa3CwjT2WwbI5Sfvhck9CogwIF40xtuuz3cIZcVyiY938rFxTw0SbcET8vbsa2JotNipct7K69XrUZjCRqAeJZXwEAfaFNpmzo45/hP298LDWUF0Ei5oHzsaCaBXb3XmI2pCM++HtYutTYJI2g/xIkPVfiUUBiWVdhvQHzzKsjyxLwvD97EbIUIbLxwqh6oFVwyuwiu3LL0X93jAbJ0kbQmn8EYD7Yy9GpVcShwISS9pWWCoA371hFosIvqsO5+qz4Pr2K1g3yEW1bDSjaC9rH83Or094xA27Qxx/mJG1gcVmsBc9BQUwRV5OmBRM9y+TKfQxL5wnneC22ZDDe+F5kIdPv3ChLFvVvmPB4vWZ6UFgtQ2X7evhKX8LnTmnkTuzFravHTAv2sNJBFUDwt+yI/OdZnnJimt/tqBso7yoUWGexxxWQ69PUTCWkNZnlR76+SBEvnDJ+rKloAcJonnfDthnavHb76cT3iWSxFJ/DMJzGOln7X4LhWMZUD0g4ds9EDcylUk68kcSS/WABId62aMVltfjHookGqJyQDgEvAEgz4LsjBB6WhrZyLwC9lo3elI/i05iUDcgfBCDXazNGsDVk27Mmcvx0YXLKMFVlOTb4Z2MvI1oh6p7MeEuJzJKG4EDTbh7zYYsebcsdLMCm460w/XrNBw7IrW4xlpRddrN+qJnpUfZhRbYNsuL5OmIAVHLQFO+oNMVC1eCckE2+t1hVs8XGgJygWiGij0IB3fpFlRNLj3+IU6PZ+Jghwu/3HfALFdTSZx+X86mp6flZwkgxUQNU51CtThlfd4nF2Ry3fhZt6DmDDp5Our1IP3nkL6vDpXf/4VL+xd2cfmOKmQe7oTjp7twFbDxyB0Oadty2IghjhE3jjpa8a+8+PRoDPJcpJioIDL+OCx4OLkgmRA8NtarGC8KUr8inpCTpJNvyfNRaTeXw0iffPwjanKOw6h05ZoZeeLSj27g3ZIVe5GSFqkTkMejGO4ADCVL51/yUHSuEIa+VtS5jqJm8n24dmtj1pREqDYGEaepodfHPBPrySlsohUpmO4ny4nqk3VkeaGAEEUUEKKIApJUYQQ76lAl3hWgX75i5XEI/pvN86c5SFfnaxgFJIn4W5+gcaYctSVzqNr3NhpveeGsbACXXSqd5lC+th0H95xC+7j8AQ2igCQNh7YWA2yHsqBfK04c+OG8FEBpYy3K8gxsj98As9kChFoR/CfyCS2igCTLZBDB7YWRI8RBP3s0ofbL6OtWQn8Ps0cDoOHba1JAkmVdEWqrzUgDG3N09bAcWGER0zIvjOHb4hW3S+8goC0UkGQLD2Ng0XzTvLAP3nrWHivEVg3PLlBAku2uX7ojgNWUG33hdb8Xjayt3GuRTm3ghxJ/ZX4iUECSjLvXK934pWj74jlqHr0dLB4GB0p2s3iEe9BQ68OU/KqWUECSKoRAnzj+KEDuq3JJMopAB2tKLNLmRTzNga8ojXGrq9SjgCQVh+ANlo+KJeMPtkdTftYKQ6AdDa6jqB5/D+cXnWWnJTSbm2TSaQ7xrryf4dnGRtunOVBAiCLaxBBFFBCiiAJCFFFAiCIKCFFEASGKKCBEEQWEKKKAEEUUEKKIAkIUAP8By+A35Tb6oNMAAAAASUVORK5CYII=;" vertex="1" parent="1">
          <mxGeometry x="372.00000000000006" y="297.5" width="83.84" height="45" as="geometry" />
        </mxCell>
        <mxCell id="PyBMAkxGsIOwwzF0yhr_-8" style="edgeStyle=orthogonalEdgeStyle;rounded=0;orthogonalLoop=1;jettySize=auto;html=1;exitX=0.5;exitY=1;exitDx=0;exitDy=0;entryX=0.5;entryY=0;entryDx=0;entryDy=0;" edge="1" parent="1" source="PyBMAkxGsIOwwzF0yhr_-9" target="PyBMAkxGsIOwwzF0yhr_-13">
          <mxGeometry relative="1" as="geometry" />
        </mxCell>
        <mxCell id="PyBMAkxGsIOwwzF0yhr_-9" value="" style="rounded=0;whiteSpace=wrap;html=1;" vertex="1" parent="1">
          <mxGeometry x="300" y="370" width="240" height="60" as="geometry" />
        </mxCell>
        <mxCell id="PyBMAkxGsIOwwzF0yhr_-10" value="" style="shape=image;verticalLabelPosition=bottom;labelBackgroundColor=default;verticalAlign=top;aspect=fixed;imageAspect=0;image=data:image/png,iVBORw0KGgoAAAANSUhEUgAAAZ4AAABRCAYAAADitcDaAAAAAXNSR0IArs4c6QAAAARnQU1BAACxjwv8YQUAAAAJcEhZcwAADsMAAA7DAcdvqGQAABnySURBVHhe7Z0NUFtlusf/e29nTKfScMeZht3elo6lpVuVdF0La61kKjUdR6DjUrreLZd1act1BepaQNdixrVYdQFdS9idgkUl4upNqr0EZ73Eahv2Tp2EHUvobYfQaYfU7R3ibGcIU4Z0dOfc95wcIAkhnycf0OfnHE7OOfH05Hnf8/6f9+t5v8cxQBAEQRAJ4p/EPUEQBEEkBBIegiAIIqGQ8BAEQRAJhYSHIAiCSCgkPARBEERCoVFtKYzjUy2MI+KBD9koflqNTPGIIAgiYVwxQdtrFw98yS6qgfpO8SAIJDwpjPV3y7H9iHjggwanJuqRKx4RxIJg0gHrSS30snq07FKIJ4kFx0Azlhc0ige+aD6fQP1m8SAIJDwpjCA8Q20Y+ONOZIjnPNwGuVwmfiaIVMcFa7cOFsgxbqiG/d8voZuEZ+HynRuuyZvigci1HlT9pBrKMIWH+nhSnSVLkS6XM6Hx3kh0iIWEHLllNagp24EN6eIpYuGyROZXHvHbUvFieJDwEAThhRv23g5ou62snsLqKldM0B3VouOETTgmCCkg4SEIYpYhPUwZ5chzbEdJSQN63Hkof3o/sm0P4uBJp/glgogNEh6CIGawWd3I3+yE4yKw6UkNyjfKxSvAzX+IHwgiRmhwQQojDC642IlLXaWgrlgiYbhMqFtlgvrrFqgF3bGieV0tZB/9BTU5wjeCDPWfZe7QWicMv1iHniIaXLDouGZA2Q/3hj24gIRHKtwuuISBHtKNOCPhIZKB+3QDVhzfhPPvl3rmig00Y93LCpzqKYdiEpAtE74WBSQ8i5YIhYea2mLGBdPB5Vi+YhVWrWLbU71wiFcIYiFiv9gP5Zb1MxOUrV90YMNjKmReN0L3BQ0xIGKHhCdm5FC/MYGJv7YIEzq9X1iCWHg4MWIdQ3GuUjxmOTw9E/JJGzq6gR1Fs30+kcA3zTUerELTWcDSUoW6I1qYrogXiVsOamqTCNendVj1sw7U901Ac794MkaoqY1ICpNuYJlvc7Hb5YaM5o8R80FNbcnAjcGzHWxfibyNnjMEsWDxEx0eEh1CSkh4JMGOodNsV5SH7OhaIgiCIG4ZSHik4IoNpiFP/47imhm6ow2o/kUdGrvNcH4nfocgCIIQIOGRAJd9CGa2z7S9haoPbyLv8WdxpKkIOFaErc+aKNQIQRCEFyQ8MTPdv8PIr0dnrRrZCjnkig3YsBZwHrch8MoVBEEQtyYkPDEj9u9sa4GmzHsgtRvgm9lyZLjNc4IgCIJgkPDEynT/jjoP2eIpAZcdll5AUZSH2RkRBJHCnOtA0c6iOdv2TcuxfLm0265ummZ9K0PCEyPT/Tvqe33lxXXWhA4oUH6/GNyKIFKdH+1A6RIzzKentzHkPHkcH5m/xtdfR7hdGsCpT3px4u0W1O8rRq7fcsimY0bYxM/ErQcJT4zYvwo0f8cFcy87ryhHfq4McDthG6EhBkSqk4ny33eidGa2sh3aFh3sS/wX/QpjU2QjN18F9a5KaN7oxqnBCXzzv6fQVqXyTIYeaoX+tFv4V4hbDxKemLDB8inb+c/fuWaCvpvpzr4dUPG682UrmofoJSMWAKtL8UqTV6SMgUbsec3M91jGjGx1Lspf7cX5v3aicrMT2jY9xTW8RSHhiYWrI7CI83d84rP93yiMbLc7l29mc6D3A2D/I6kb9Mb1pQm2KCtk9s+MsE+KB4uEaOyxmOygeOwPeP+52aZj59F9qDohnUTI1peixXgKmvG3YGTvT1yZtMPUT/IWKfHOzyQ8sTA6zARG4RNQUeAeNY7kK2AxNKOh4jDGqjVQRR1KPlpccAwYYey1whGkEHWcrMbe/vSoIy5kZ99E08+aYU35QjdGe0y64HLxW2Dff+HYIRxkyP3169DMxNxywvD8YRiuiodSsCwX9b/fDdPJKGtTThtMvUaYhoKsijppRXO5Fq41FLZ3Bn75liD5eJq452c+SGjEfGvhDmelcWlpAbb9PdyY+LXFzxQ3Pj4lfvaHvzbOTX0rHkaB5TVmz3J9FPYc5fT7s7g9bX1cz8uFXNpD7dyweMWbKWsTV/BQKzcoHkfL1BeHuLv369m/mqrEYo8xrme/V/5+po8bF6/4k2p2GLf3cV1vtnKtbGs3nOGG/y5eCBdbK1fg/W5LkFf8mZr3/ZkfIZ0eOMTpTe1cxY+zuFpToBTh0/xurvbP86VWKjPODRr0nCXS9ArKONf3jFda/jx0Po0oP/9Nz+1h922yischiE54ZhjkWn/M/5CtXNNX4ilCMqIVnnFjFUuTCq7nbBdXImS0Q9wZ//d7apBreoilmzXyF38u41zPr9K4PR+kpvRIYg9W2PEvbOE7wX5jqthhnDvzcglX8psurs98huszNHF7lPzvLmAFcWTPNmqo4LIEm3m2gtcszKVKJqzMeSCNy2qxcGd+63mmQGky9jF77qictuQz+l6J8LuyWqSWeYa9XXAmtraFc+8I8nNChcfh+cfSspo4i3iKkI7ohGeM05ez/+8B5p1OjXJ9x1q5rrNzvb4xwx4u7addknnnU+bDXFYWK9BviCeiZNzUxHVdEA8kQRp7jH7ArqdlhXSwUsEO/G+ZIxDsXa0QWikKuFabeC4sPLXFaeHhnczDZ5MoPcwB4IWQr8mMW7u41mM93LC/racsXNMDWdxhc4Kf80IX1xSw9hUZU7Z2rupXrRLXeDyM/7lWSMfDZ8UTIQg7PydSeKZ/RLDmByJ6ohKeqTPcIT5NXjgTxDP1eI17DFL6g9Lcky80w828YSGJPaabKQLUlOaQbDtMNw1mcRUf+z7D4Jtbhfc167fBbBGAG8yG3k3rWaz2+DfxWoIZfaeQPUMh13VZPBEAoVxKhjPMRFHad0pqprgzL/BpWMv1hV1gh5mfIxSemAYX2Id6hH3xFiVoNYAUYWQI/WynWrsG866gMtQP/ZAK6nulHGmnRN4jgLG3H0G6exOPJPaww3Kc7R7Pw4aQy9Kkih2c6L8yJn72kLHS08nuvPJNZIFrl6mg+ZNGWGFXwGlA7UuGJAyFdrEyh5+unYPMH3jOzMUFy2cdLK1y2bcIX6JZviU++TkG4bHB0ss/itQFGBENrotmmPvNMP3FIswIl7vswrG53z6nkHFc5L+Tiw1+s8nn4HLA1K1Fo6YB2hM24T5ul2veUUiZG0uBk4MYlmLSR4xIao8hC0xsp8rNgPszHRqeKkPdUSPs85TeybWDAsWNvWhr7sYn+3xHW7qnl+i4LfLogbLNNXj9xRnpgfPDvah9N0HSM+mAVUg7E8xWdrz+JhxWT/rarvkb2eMkFN8VxNEQcQ4Y0HG0AQ0aHUxX2X34EV/JHJXoNKPjYLUnb8XjOaJcviUe+Tl64RHnsECRH7oAI+KMG6MXhzB0bgimL/gZRErcNs68G3Y89I17TpBS52X2ncc2+M498sM9pMWu+/bCoijGgbpnUbxMj72FRbhn1SpoB8Qv+aH41w3sbz+GRjzHyUNae3iECRhua4KOOVqa5uPYf4cem++rg+m65zveJN0OChXK/6PYz6t1wdbP2wIoLxKjB0SEDMraTnQ+Jh4yTAf2onkgAeo6PopBPu1O/zf6+TKHJZSLPz5nx7i/vFx1MOlhKb42WO5mDlX9dmx9a0pYwuTZXysx+nIpih5dhVVPGZJTU72iQ9lLDuQ9V4McaxkKW6SZtOtNtMu3xCU/i01uETPTvxO07TxZjHL6mkKusDjybc87gQbaJofI+3im2/eDtW+Lne3B+uXEYbQlPqOFmE1/zt+7guuZ74HEwSax9NFI28cjhT2m+3cK2HN55XSxTTvg6KCUswNDTNOsWId7zwxSELeHmG1jHEgRNl95BhYE7W8QRh9uDTKAgk/PLC7Nv8P87GHh98Q0kizqPh5+9FgV1yMMJrBwTbx9JZ+WMt2/w+z3nncOEPN/sHcknPycqD6emf4d5YaQVdrEk4nS1l709kS+dT/hE2N6geGA7UO2ezw7SG3GjalxtlOkz9Mv54DupQZYFfWoedz7LuMY41tWtqmgnM9d/mfPzuZIlV4eKewx3b9zAOWb5+Z0m80x10NONTvwEymfaYDjkSM48fvSILYIg9WleKO10jekjiYxix067DZmawWrzcxfX3Pf4BMzExl3eI79cZ9uQtVxJ9QvVvpM6naNe37B7nuT8P5ft8Cythxq9szu/j50sGwTTq3UPdSB6p1laPgsnHwWw/ItccjPUQrPdP+OEnnrI6+0LwYChXoPtcWd6WYGZWaQTOuEk8+A8+Du16HxM/bh8XzkeZez1zxNq4p8ZWwFF8P9ZTPuCWAffltXYURjQeBry5dXwxigaWteJLDHTP/OFqXvPa7yUSsY/KJ/wonISYwdHDA8swe67DZ88nYNlBJE0JA/8jLeb/Dq7zlei44v49/kJjSJYieUQZr2XdeD9Ts5oG/TshRXoXiLby72ONKlyNsYwo2+ZkBZwDRhW0EjjBXrAl9bfg+058R7+HOHGkdqc5kD74bltI49XyWK80PlKhdMx+qgO22EtjuMjv8UW74lOuERCyEoipF3iw4dmZiYiHiLN+7Lg0JhmHfnGs+JgCig2CZ+DIB9gM/4QOWWTT41WfeI595SeISy++txPoB9+O3S28XQfB742sREG4rn8WQDIYU9nOweNvad/Lt8CyqHne/lDjFaLgTxt4Mb1t/tRfvK4/ifP5YjWxQdd4hwKaGRIffp2ZA6uQ2dqLk/WiuEiwPDvMlzmBMRpEyW3xHELXLaYOadqhy1n3ixe59luT5YbX6alaXoDpgmbPtcg+K3LwW+NnEeNT8S7zEf100wvM7qdLVFCKk7zN1RP9mC8m0sn+xVB3GsPKTa8i1RCY+LeYGCt1ek9FVPtxPWEx3QHtXBet0Fx2c69lkLXb+/HrtgO6FF4/ONaJ4ZUeGG85xnpAq/2UemRyGx7ZwT7uuzx/aQ3p4duoq5C1qFs5W9y/vICxOng/cGVMgJOlZShqXpbHdjiq9k++HEiBD7au49hqx69lf0CFk62/lRQP78w7NTZoZ6DRJD7PZgRdKIgf1lXvZ6z7EHB8y9wmuM0vwABV1K2MEN+7t1aFryCj55UTVbK3OZ8EK9KbSHHApZOtasVSC3thcfPcd763HGPQq70FSU41vm+CG7nU9MF6Zueo59uGoHn5pz7nHNChO793Rt3sXKnkQ0HfrDi4COF4FtecyebjgGgj+HLKcSbT3dqA+tUrEt3xKH/ByV8Mz07+Rm+zYzyOTIzv0X2DUGtL9rgntLOWqezofr0C5o+TJAgFX9K0tgXLkfmlc1qFlpwnZhRIUM8jsz4OgsQuP5pchcmYkN/+jHCweZm3OnnN06A0vPMRG7ko6MkHbORvnbgftwQm0Lt49neo5DqGHScqxYzXZXA83lUCBTKGDlWOrT4GvHoJdH6DrdjLcuBHiznXxUbhUUEdRK4ocU9mAWUaj4v0j3znNXzDAyzzn3RQ12B7p3CtjBcaIOjZP70S004czitlnQlx2s6TEcPDWpQ3gFnd6iFk/E+Vghh0nfoWCWZ85sIOdUsQbF/P72pb42uehxpD21eRt0z5swKlxJJA70vKtjtbEDKM5nT8dqP83vSOUEx7h8Sxzyc+TC47YyleT9pWymnv7eHhOP1ZnMazBjzZZSsWqfgYy17IePeHwsvg/h0OkdKBar5rJtO7H7+H/CzC7L5NnYuascVqsDrmUyKDIzkT7SD8d19t0lt2HqOzUOPKGEfInwvxI+jMLWy3YhhknzabRmLStMTw6zrD6XnAfrWaHk7TEyr+ilOjRfZB/XZwjXzL1u5iHNLW6cfxtmf4NN7ksk0tgj8141lLBg+Ip4YpLVpl9rhO3xTnTWKgMWgsm2g3ugGXsrdDA+/yBW+PU1rChsZp5rhvjN6HCcqMIe0w68H+tAhQjwNHkyrzvoMGnGDzKFiaO2ywFSc3Uu1A+zvVft1j2iQ10970jnMmeXpeZQP8z5+Qnt7/DghJNvBnyE72thwn5cj+wni6UR9RiXb4lHfg5beBwflnky74rtaBRqL3Y0bOUz8zo0B+g0k80jDq5v7HAqhmE8qhWa4bRHLUhvVCFDfIPlW9QoP9mD/mvs3+x3Qf0qYODX03BbYL09sR1gC4prI7Ax8Vbmrg/pzXoKU+tsYeqFLL8eJ5rl0B6oRuPRBuwtPAh7cTdOvVoKxX91oPH5Kpgeqg/Yx+C4aAD2qbApUGmcaCSyB3L2o61ZNmOPsgd2wXTX+/hrx/yFbnLt4ERvWyP7NfMTS5OJ48RebH8eeOWdeuQmcKkPT5NnpV+TZwBkm6DaBxgvjM6Iyyz8CqsnUHOuDvs0WjQe3IWyd9JR//n70Gy2Qv9mA6pfd+NZv4m3iSEHan6C7ld6NB4og279EdRI1e0S4/ItccnP4rBqCbFwTT7juT3jxKfHt/NRY4WAjcJRIDzzJkre6+O6jp3hpi53cYXs+xZze9D4TEnn78Nc33ueEPStx/TcGXvs0esimscjzEMINzBiGPGXpsY9yzqIhwI3+HPz3d9zzypjbL9bsvkr8bJHyGUuUswOEiIsR5BVwekd4omEIc4hCzOorRCNPESstimWluM+849iX8ZEilhtc59LCmJZviXM/JzIWG3RoMj/GSqdZti8vEtXrw6mmQZ2OfKLamB6qRaOH+ZBdqcKpQo9artlUAVtq08ertON2FWpw5giBzkbM+A+exhF963C9npTwOYbybhuhe5oB0xX3J5RVtOdhCFRovhJNYwf9M3/fDLP2vk+d1vGn5vn/gMmtDrrUfpwbI0DMrkSimg96UTYI1QzbyrYIR5cNaDq533Y8ac/oJTvE4s7bth7O6DttsLlHsVgL6B+TBVW05784VLUowN9/YGGi3iQsbSU+9hXFl76BmOZAsr53o8wmftcUsD/tvmeK8Tvlig/z0EUIGkYt3Dtz5RwdzPlu/untVy71cL1vVDB3ZeVxmXlVXCHxLVApuxdXNWjFVyToY/VEpq4JpOfH8NHFPbyWPj1KUp8ZtumELzSz5m9PRtKviCsdS8CE7zGM7uwU8XHg0KtMqJ/Kx7r8cTo7cVGKtgjFewQB9h73fRQFldhkP4dnHchOFsrt5WlpVBzYTWJrKxari+CZQIW8no8qUME+TnCGk8cmtrCh69WzlfFm7rhlSG/nYqtChxHhKZDZvAs/xAXMy/O4TBC6QcmuPBMcWd+y8Tt0cNcj+EwV/gov96MeClMFtcKpMm3R+qvxBoFN3jRidMCcJe7uJL5Qm7x19Lu4yqO9XDt++/jqoyRSgjv/C3UFUhTgxRegZSYFh7eM/MpsMSESEvbw+mjXLskdB/PODds0nN64yA3FqUwj35cxZXEUqjwsbse9a/xJYsk2iOl7CAVnpp7XETnxjDXXh68D27KYWFOhJ47czlK8eBF86dVSeiTWgREmp9JeBLMt2PcmffauZ4Lfi+HGFgvaFDNEEQeJDQ6xs/2cYNRvttj1jNzV4Bc4ERjj8VnhymW/wpiDyoaiL8zQdjNB+pkBZt4Km4wgeszL6o6aEKIOD9HKDwJH1yw6FiigKqsEsUbfTvfXDazMEYeZTuhim22XtyR36+GMsq+Q8Vm1UwolsVCNPZYXHbgJ4gWYrvUc3UmHTC3V6PoJ9vR+KkTymo1ZiO+xYll2VAHii5BBCXe+ZmEJy7YoHtTx1KvFJ2/kWgSGEEkCGGC6JF0tLRUIvs7F1yuaDYn7AN8iCujZ8Gxws1Y9/17UFSvEyaL8yMJd2+jWXm3Kt/jqz3iZ0ISRG/xeDqOfNSNmpzoh1daf7cc2y924lJXachJkAQhBXzUg8KC4BNQJeHhNpz/qFy62hSRXPio3T/cC+XnE6gXg8cGg4RHYoSZ3S8vhUbfgvL1sY3pJ+EhEsp1Exqf0sLqNf1l7KIZdk+0q9AosqHaGF44nsx/a0Obz3pPxIKGhCd5CN7ib9xMdDRQTYeUmXTBvcxvImaYkPAQBLEgiFB4qI9HIoRgg68Brxi9RAcumDQHYQrXYyQIgrgFIOGRgqsG1B1xYb/OL3CiexCWLzYgRZanIQiCSAlIeGKFX8/+l3uhO9mAB7/vG4J++YoiNCvXILYg9ARBEIsLEp4YcX7aisYB8SAQG2NddIsgCGJxQcITI4pd3QHWV/fanov7FDmCiB/XjKguaPCKHh8Fkw5Yu+tQd4I6OwkPJDwEQQRBjpxf7kReVLOgXUxwtNCeNKPP0IEx8SxBkPAQBDE/K1WoLMuNMvqGHLllNagp24EN6eIpgmCQ8BAEERBnvw7adiPsk+IJgpAImkCawtAEUiJZuE83Q3t7DYpthWiQdeJEWSY7aYOhvT90k9nKfOzfpfSaNO2E4Rfr0FN0Cd27KCcvSihyweKBhIdIDm6Y3zVhwxNK9JVsh+Pp89DkxxL+iYRn0UORCwiCiA0ZVE8UQzFkxFvOAyiOSXQIYi5U40lhqMZDJBPb0QdRjTb8pSqb1YFk7D87jH8wwSFen5fVatQ8li0e8FCNZ9FDTW2LBxIeInnY0LzuBSj6erHzQgfMWypRPBODMFJIeBY91NRGEETsyCBfLYeLiY7uux1Ri47jUy0aD1ah6SxgaalC3REtTFfEi8QtC9V4UhihxjPUhoE/7vSL93Yb5HJqdyfijRuuSSZAi2xpcyJGvuPzxU3xQORaD6p+Uk1NbYsBQXiOiAc+aHBqoj7+69UTBEH4M9CM5QWN4oEvGhKehY9rxIzBgJMmMrApPzvK2eQEQRAxcN0O84XAs7ky7lIhO4xmWRIegiAIIqHQ4AKCIAgioZDwEARBEAmFhIcgCIJIKCQ8BEEQREIh4SEIgiASCgkPQRAEkVBIeAiCIIgEAvw/ut+okbVq9JwAAAAASUVORK5CYII=;" vertex="1" parent="1">
          <mxGeometry x="308" y="378.09" width="224" height="43.83" as="geometry" />
        </mxCell>
        <mxCell id="PyBMAkxGsIOwwzF0yhr_-11" style="edgeStyle=orthogonalEdgeStyle;rounded=0;orthogonalLoop=1;jettySize=auto;html=1;exitX=0.5;exitY=1;exitDx=0;exitDy=0;entryX=0.5;entryY=0;entryDx=0;entryDy=0;" edge="1" parent="1" source="PyBMAkxGsIOwwzF0yhr_-13" target="PyBMAkxGsIOwwzF0yhr_-18">
          <mxGeometry relative="1" as="geometry" />
        </mxCell>
        <mxCell id="PyBMAkxGsIOwwzF0yhr_-31" style="edgeStyle=none;curved=1;rounded=0;orthogonalLoop=1;jettySize=auto;html=1;entryX=1;entryY=0.5;entryDx=0;entryDy=0;fontSize=12;startSize=8;endSize=8;" edge="1" parent="1" source="PyBMAkxGsIOwwzF0yhr_-13" target="PyBMAkxGsIOwwzF0yhr_-20">
          <mxGeometry relative="1" as="geometry" />
        </mxCell>
        <mxCell id="PyBMAkxGsIOwwzF0yhr_-13" value="" style="rhombus;whiteSpace=wrap;html=1;" vertex="1" parent="1">
          <mxGeometry x="340" y="450" width="160" height="80" as="geometry" />
        </mxCell>
        <mxCell id="PyBMAkxGsIOwwzF0yhr_-14" value="" style="shape=image;verticalLabelPosition=bottom;labelBackgroundColor=default;verticalAlign=top;aspect=fixed;imageAspect=0;image=data:image/png,iVBORw0KGgoAAAANSUhEUgAAAKgAAAAoCAYAAABq+7FsAAAAAXNSR0IArs4c6QAAAARnQU1BAACxjwv8YQUAAAAJcEhZcwAADsMAAA7DAcdvqGQAAAgfSURBVHhe7ZwPTBvXHce/XZHijRLTRRpIUWuUf1SrwEmXmK1lZgrUWZTgqCFNq4HIShZPU4D0T9CUEKRpXroEUq0BprZUo8NlagtZCZAF4WZSTLRGNirBltb1iIjwFmt2FSRfFMRNQ3p7d344TjAM2xgOeB/p6b33u3fm3t3vfn/ePfEIoYDDUSnfYDWHo0q4gnJUDVdQjqrhCspRNVxBOaqGKyhH1XAF5agarqAcVZOwgkq3XHCPsw5HBYhwX/dCYr3lTsIKKg41wn6LdTgqQID9XRdV05VBcl38lAvWzWuxdm2UYulBgA1bqXg/Los+97Wb0XCDDeLMSXIVNMWAupt3cffuNZzeIgv0qHPIfVpazMhQBq1cdC+3K3P915/KQ4KydtyU5373Jmq2hUScuVmcJOmfI3CO0DrDjIJV+GAEj02pzTvzVvxLudAsioKKf3eiR24U65GtSFYTbjj75FqPvC3LXD2nAnBdaEDledeiJWGLoqCCp1upzc/qoVVaqwgf9R4eWlPvkZcbEi07RC/s5w+jaNdJOLUHcfqYARp2KNksgoJSC9Irp0MFMD2z+hyc6GHe42UDlp1+jrvRc7YMRRVNGNv2Ji799Q+oel4Xl5GRxgW4BhxwyOVGYN4WOPkKKsefigUx4qkNIdFqQhhqUWqz/qlFszqJIvkcaKkuxo7X7cDu3+PKn8/BYsyI7/oDDjQdykHOnnp03/DAQ4vgjyFAkHfUJ4K/s5TUu1gnCsHLb5C0tDSSduoqmWSy1cMwaXyOzj1tL2kbZaKk4yT15R3Ez3qxEBztJ42vFJLCVxpJ/2iQSeNn0t1ISjalkcIzThLvryXdgobjz2VkQRaMcPwZi/eQIAZC7lCY7QvdRADCIHWVIwuzHC96etBwaAfK3h5DrvUSrrRWwbQhwWxBcqPptVrYUYW6SkPcuUeSFXQ6/lRnBiu8VxRlEX3uknN2/hlsOP6MZfVCEiFcs6F+bzF6ZvlCJ/ro7577GYq7BCaJH/kePFFhR1btNfQ2WlCwfmHMiHS9A9ZBuWXHuZ8Uo3gfKxU2xHTVzJLGzZwu/nYHKZXd+6Z66nhWH84zm5TwprQzVodL3TQ9b67QSb7vadR1ziR2Fx90d9NztpO9Ve+Rq7cXJhAbbs5X5n60c4wEg8H75R4bME+SakHjsiArBnV7j0i0uWbUtA2i/dUseOr2Klm7/VaC4YPkVyqdjmb9Wu39kqqI501SFTQcfxqyH4xBJHnBtwVN521wjYvwfmaj7SbYBh76Oj/hhb3ditoTVrT0CqENEPRc9/RyxYAAYWS67YDbR+O3cJ+NXyqm40+YZln/ZPM+a4X1LRsc/3djQsR9+syL4BQTLyDaDSZUtV7BJWsuxpoPo+hQA3o88d3FrO/uU2op0etkljRuZnXxk9TVKBnsdtLoZrIwkyTo7SBHaXZbca6DfKWYfTnjzb8/9h49f2cp6fCGumMflJDC5mHaoucKbTR0KCSNrkkyec9Prv4mn2w/c5UEZe90x0ka91eQNnfiWWgi+DuPhlYvftEdJYP1k/7jJeTXDnbkv2Ok7UgJaRNC3Zkufox0HCkkJy8zxx38io6n4cMCufhZuTNMus+UksL9J0mbK8ZfnBymzy+NbDrV/+D8/U4yfJu158GCW9DwDp7vFMGqWBABtflyghG5g0cD7ZM66OBA1rMvIlsx+5nI3Ejd4kjIlHi76mHdeBDGJ5UudDtfQubbduo46blb9uFgmQtOrwhNagay1qdD+JxaFTm+T52EZKpGee4SfLOK2L21mSYDCu1leEK+HxG7t6SBFhy9XgCzkV1jig67TBpUnu6MusNL7GvC4UA5LLtZqKDNpuPzQu1ksk4P8y/baVZvQeaQFQdKKtFCvdy8kkSNHjWfXkONrxZFJcdhpZbf+voBFJ9w4j8x5GELrqDTO3hmlug7eDQprPEQAZ8dGB9AB52Y7NaauvzIq9QjXTmqRcHucvT0DtAH6oVjwoTT6ISDZr2SywXtD/TKqEUnvHsrSonYvSV+LSCwkb6QrB+ma4zOZiaCpwVI/+bSLdNpdTD9vBkXPqnD1q9tOD7fb/FaPSytgxi01aH6p+WofvMCelurYFjHjs+DJC8zxc+aFPo4dSaUH6tCVbiYqNUNoTWaYen6BP19Dkg5R2B+AXi/j1rVf2Rgl9q/KT66Bhj1I5RGRECnTI/MYM1jS/TCPQx9JoYDNWiO9Vt8KkuQ4njDVKug+uerYeh1YHiCCSjuP9qoi2dojSg+Zof1hBfZBg10xheR8dEbsKUWhJVYrWQYX4IlIMAbsRDv93lheNVEc/6Z6H94EIYuJ9wR90Ievxp49FcU1o6LiS8/hTt9P55bzwTzQXSh5WQ93h8ahfvf40jZkI7xd2nM2fclRof9CKzfisJ8E/blDKG27iMaW6bCd+VDCN+3YE/GdEyQgsxH7uGdb+/BWz+if/zxdEh/+RuyDlugf5wNUSvf2gjjj+/gg1MfYoxO59bF36F1qgptr+VBM+Pe5OF7zxhRsNWB354dgmbdBDwXL+OLOz4M2DrwxSSNR/OzIiyaD59fFKF/4Wk8xiTLmYT/u13gQhlsunbU7GCCJCCJIrWY2ihuRYIkaaCZPjBBI6PUOPzIEqLMjbrA2WLxB5iSIFIrqpV9pSRCSol2ngsNh7wob6MehUmWMwkrqORzw0sztuwYAl9OMhEh3JCg2xbn7iOVwf8/KEfVqDZJ4nBkuIJyVA1XUI6q4QrKUTVcQTmqhisoR9VwBeWoGOB/6p/7Bw+hRTgAAAAASUVORK5CYII=;" vertex="1" parent="1">
          <mxGeometry x="368" y="477.62" width="104" height="24.76" as="geometry" />
        </mxCell>
        <mxCell id="PyBMAkxGsIOwwzF0yhr_-15" value="Конец" style="rounded=1;whiteSpace=wrap;html=1;arcSize=50;" vertex="1" parent="1">
          <mxGeometry x="267" y="775" width="120" height="40" as="geometry" />
        </mxCell>
        <mxCell id="PyBMAkxGsIOwwzF0yhr_-16" value="да" style="text;html=1;align=center;verticalAlign=middle;resizable=0;points=[];autosize=1;strokeColor=none;fillColor=none;" vertex="1" parent="1">
          <mxGeometry x="414" y="530" width="40" height="30" as="geometry" />
        </mxCell>
        <mxCell id="PyBMAkxGsIOwwzF0yhr_-17" style="edgeStyle=orthogonalEdgeStyle;rounded=0;orthogonalLoop=1;jettySize=auto;html=1;exitX=0.5;exitY=1;exitDx=0;exitDy=0;entryX=0.5;entryY=0;entryDx=0;entryDy=0;" edge="1" parent="1" source="PyBMAkxGsIOwwzF0yhr_-18" target="PyBMAkxGsIOwwzF0yhr_-15">
          <mxGeometry relative="1" as="geometry" />
        </mxCell>
        <mxCell id="PyBMAkxGsIOwwzF0yhr_-18" value="Вывести I" style="shape=parallelogram;perimeter=parallelogramPerimeter;whiteSpace=wrap;html=1;fixedSize=1;" vertex="1" parent="1">
          <mxGeometry x="360" y="640" width="120" height="60" as="geometry" />
        </mxCell>
        <mxCell id="PyBMAkxGsIOwwzF0yhr_-32" style="edgeStyle=none;curved=1;rounded=0;orthogonalLoop=1;jettySize=auto;html=1;entryX=0.5;entryY=0;entryDx=0;entryDy=0;fontSize=12;startSize=8;endSize=8;" edge="1" parent="1" source="PyBMAkxGsIOwwzF0yhr_-20" target="PyBMAkxGsIOwwzF0yhr_-24">
          <mxGeometry relative="1" as="geometry" />
        </mxCell>
        <mxCell id="PyBMAkxGsIOwwzF0yhr_-20" value="" style="rounded=0;whiteSpace=wrap;html=1;" vertex="1" parent="1">
          <mxGeometry x="139" y="460.31" width="120" height="57.69" as="geometry" />
        </mxCell>
        <mxCell id="PyBMAkxGsIOwwzF0yhr_-21" value="" style="shape=image;verticalLabelPosition=bottom;labelBackgroundColor=default;verticalAlign=top;aspect=fixed;imageAspect=0;image=data:image/png,iVBORw0KGgoAAAANSUhEUgAAAJEAAAAhCAYAAADZEklWAAAAAXNSR0IArs4c6QAAAARnQU1BAACxjwv8YQUAAAAJcEhZcwAADsMAAA7DAcdvqGQAAAZoSURBVHhe7ZoPSJRnHMe/W21Jed1YkUE1B0qxCoU2lJFLhkOIqZE3Y6jIlm3hrEHTGFiCM2XLZJS5LY0RXkFwVksFw9twnmNuOtbuhEkntd1Fbd424d4w7mIbz37v+z7maf65ex9NWc8H3nvf5/c+PPf8+T6/5/e87/sYIyCRCPA4P0skhpEikggjRSQRRopIIowUkUQYuTt7ZAlCUe5pV0uWmRG1WLs0hPREC5ogvF82o3UwyNOzg3KlFMuXr8K6devoKEbbb/yGQaSIFjDB7mN4xVKI/Fo7fNw2G5i31+LOnR9Q+yIlEpKx/hndbhQpojnBDetROxSeMkpUXDJ25e/H56XpiOG2WUPxYvA7Om9PRqJuMYwU0ZygwDeg0GIkyJp0VH9ajZz1UdwwewSvOtBI57e3bNANAkgRPaK4B7rpNwvJm8y6QQBxESlutDYcQel7h9DY5tZduM8Ba/k+7Cu3om9Yy7WwIdduP3cSR8oP4eQFl9aGoDILnsQoap8encv+88Jld+nx0CofHNT2Q+/ko7TaCoeR4Evd4hvGa2PFBTWsy+tnfv811lRgYmmlZay4qIk5hzysqyKNmbKbmIdnX4gEXHXMEp/GKu0eaoOfedrLmOXVDBZvMrGaPp4pYnpZTYGNDfFURIx0scrsStZBfdpRYZqb/vN3sBJqnyl3Nyt+s4Z1uIeo7UOsqyqFmeJLWMdfPF+YCIjIw5pyy1jXCE8SvR9RxUwZrMFNias12kCYttYxp347clSRZmWwjIiPPNb0My9jOkhAaVRHy5nQYfIwW67ajt2sxZAKVIyLyHncwupc6tUQs9GkNMXXGO+/KQh0llH7qOwCEujf3EgMNedp9kgnj3ERuRrY7jPXeEKFd/6oaEaczHa8jtlcAe3ufQJOVpdtYQ3hDPKcQpMgWx2kStY1ropUv61kzxLxAEZF5GQN+236/95oYhYa0JTj4UjIwzoO57GMogbmnNDdk+GsJ48zOtlD8JxXRZTCRRw+YstZKKMu8nAXm7YdJCLbqQ7mCaOxc0nAUal7yon1vWVjeWSPr51p8LinUMuI8NgchjA8Zy2UN8wBvVrHNvOyZ/YiNHmyKO8DKwQtnwfITp6vl1vCZfZE1KcvXyXtfm5Y2Dhr47VOn1jfUVdf1imicoGYSIN7w7DjIe6JDpAXm6nao5O9aoJUuD2+YgYnMAliu7O7Y/sXV18rfEhFwoaQLeNd2gXcHMujDLSi8UQEO45BKwp3ZCIz4iMf1gFexqT4MNivbkMm1Jfo77PRbw6SN0bRFs0Hd0j9Hxr93bD1A+k7UxFLSWXABd+01YhF+pFzaPs4B7EzPVIa6J30+ZDSTWODGBS8nIwo2pf6fuI77XDgYooYf3uJ5nnSTqlxEXeRE4JAz9k8VunguqY1vrKZdkD2EmYitc83vVVUX1Mes93iBo1rrEFtB4+H1DYa86winihAu1rVSxazFm2XpMaQApuTCejxELXbyw0aY0G85p8CXawsgvob9kTu/kaaz0lIfm41zZxWnP6ajBtj8JR+G7jZjGM9O1CwTZ8a7h4g67UYOHtakB73rGabTxJeOkjzTkFAf5FNKHB8UIpjqgdbv1q752gLYluS+MO4yFDwxy/kJTNTkbgC8F44De+eAuFXEzpeDPbw50Pj3pd54fmCTq8nIUFNXbYCb2SG/aplUQXBryNixZLF6PM8gdilP+L0pWhUt5Vh7eX38dn3wxjuaUbVNzEo/zAXcU/q+VcmJGK10on6nH+RVZ+LDUt1+3yxODYZqU/bcfhEJ3x/fgtr1UVEFTWgcsstXPqkB8O/2zGwtRwHXrg/LSLgNnouK0jcuQnR3BI+0ViJ67BduQ782grrvULUF8RB4EuNMf5x4VLhedzYU4bqlDXcqLIC0Uv70P7Vbdy9fhEti97F0V1rw/9P7pGMEVAfMo4PwwJ+soU8OwrF31rMTEUttA8IsIBI3DqbaG1QaxTCyIPtigzRwJoQrsPkqOMzVanTjd10iAXWUWaYzeMjuSgz2ZbxxDh8tDxYsT8nHeZ+G2yD3DzfaG0wUzAZwrIH2xUZZsRsnFBmpAjXYXLU8Zmq1KnHbnoe4peNCuwHLXA8v5eWtVi8tTdJrJMlC4aH/nlsUAmS4qV8/k/Ib6wlwsjviSTCSBFJhJEikggjRSQRRopIIowUkUQQ4D8jEc3/JuD6GgAAAABJRU5ErkJggg==;" vertex="1" parent="1">
          <mxGeometry x="153.70000000000005" y="477.62" width="90.6" height="20.62" as="geometry" />
        </mxCell>
        <mxCell id="PyBMAkxGsIOwwzF0yhr_-37" style="edgeStyle=none;curved=1;rounded=0;orthogonalLoop=1;jettySize=auto;html=1;exitX=0.5;exitY=1;exitDx=0;exitDy=0;entryX=0.5;entryY=0;entryDx=0;entryDy=0;fontSize=12;startSize=8;endSize=8;" edge="1" parent="1" source="PyBMAkxGsIOwwzF0yhr_-24" target="PyBMAkxGsIOwwzF0yhr_-27">
          <mxGeometry relative="1" as="geometry" />
        </mxCell>
        <mxCell id="PyBMAkxGsIOwwzF0yhr_-24" value="Есть разрыв 2 рода?" style="rhombus;whiteSpace=wrap;html=1;" vertex="1" parent="1">
          <mxGeometry x="119" y="555" width="160" height="80" as="geometry" />
        </mxCell>
        <mxCell id="PyBMAkxGsIOwwzF0yhr_-25" value="нет" style="text;html=1;align=center;verticalAlign=middle;resizable=0;points=[];autosize=1;strokeColor=none;fillColor=none;" vertex="1" parent="1">
          <mxGeometry x="282" y="470" width="40" height="30" as="geometry" />
        </mxCell>
        <mxCell id="PyBMAkxGsIOwwzF0yhr_-27" value="Вывести&lt;div&gt;сообщение об ошибке&lt;/div&gt;" style="shape=parallelogram;perimeter=parallelogramPerimeter;whiteSpace=wrap;html=1;fixedSize=1;" vertex="1" parent="1">
          <mxGeometry x="139" y="663" width="120" height="60" as="geometry" />
        </mxCell>
        <mxCell id="PyBMAkxGsIOwwzF0yhr_-28" value="да" style="text;html=1;align=center;verticalAlign=middle;resizable=0;points=[];autosize=1;strokeColor=none;fillColor=none;" vertex="1" parent="1">
          <mxGeometry x="197" y="633" width="40" height="30" as="geometry" />
        </mxCell>
        <mxCell id="PyBMAkxGsIOwwzF0yhr_-29" value="нет" style="text;html=1;align=center;verticalAlign=middle;resizable=0;points=[];autosize=1;strokeColor=none;fillColor=none;rotation=90;" vertex="1" parent="1">
          <mxGeometry x="50" y="475" width="40" height="30" as="geometry" />
        </mxCell>
        <mxCell id="PyBMAkxGsIOwwzF0yhr_-30" value="" style="shape=image;verticalLabelPosition=bottom;labelBackgroundColor=default;verticalAlign=top;aspect=fixed;imageAspect=0;image=data:image/png,iVBORw0KGgoAAAANSUhEUgAAABMAAAAZCAYAAADTyxWqAAAAAXNSR0IArs4c6QAAAARnQU1BAACxjwv8YQUAAAAJcEhZcwAADsMAAA7DAcdvqGQAAAElSURBVEhLY/wPBAxUAkxQmipg1DDSAd7Y/PH2JsOlqy8YvoM4vBoM5obiDBxgGewAu8teHmSYHK/LoOvdxbDx/CWGS0B888UPqCQeAHIZMvh+cdL/YBXe/84dJ/9/gIoRC1AN+37hf5cT739elar/B75AxUgAKGH2Y381g5j/ZAYGcXUGey0JqCgQCIcy9MyLY1CHcnECsJFQcGGKzX9eXt7/2asf/P/w4QMCE+lK1Aj48QJMycvLM/Dz8yMwN1iYIEAxTEHLH0z/+AOmSAdQF0IANAJUanaixuSLk/8vPIGy8QDMRPvxIsOswhSG2R/tGfzs5BkYHh5kOPXBnqG2O5fBTBiqBgfAnQO+fmT4CPIuOzDM8CV7JDBaOJIORg0jFTAwAAB681+VwSAqcAAAAABJRU5ErkJggg==;" vertex="1" parent="1">
          <mxGeometry x="431" y="232" width="11.4" height="15" as="geometry" />
        </mxCell>
        <mxCell id="PyBMAkxGsIOwwzF0yhr_-34" value="" style="endArrow=none;html=1;rounded=0;fontSize=12;startSize=8;endSize=8;curved=1;exitX=0;exitY=0.5;exitDx=0;exitDy=0;" edge="1" parent="1" source="PyBMAkxGsIOwwzF0yhr_-24">
          <mxGeometry width="50" height="50" relative="1" as="geometry">
            <mxPoint x="176" y="501" as="sourcePoint" />
            <mxPoint x="53" y="595" as="targetPoint" />
          </mxGeometry>
        </mxCell>
        <mxCell id="PyBMAkxGsIOwwzF0yhr_-35" value="" style="endArrow=none;html=1;rounded=0;fontSize=12;startSize=8;endSize=8;curved=1;" edge="1" parent="1">
          <mxGeometry width="50" height="50" relative="1" as="geometry">
            <mxPoint x="53" y="595" as="sourcePoint" />
            <mxPoint x="49" y="272" as="targetPoint" />
          </mxGeometry>
        </mxCell>
        <mxCell id="PyBMAkxGsIOwwzF0yhr_-36" value="" style="endArrow=classic;html=1;rounded=0;fontSize=12;startSize=8;endSize=8;curved=1;" edge="1" parent="1">
          <mxGeometry width="50" height="50" relative="1" as="geometry">
            <mxPoint x="49" y="272" as="sourcePoint" />
            <mxPoint x="420" y="272" as="targetPoint" />
          </mxGeometry>
        </mxCell>
        <mxCell id="PyBMAkxGsIOwwzF0yhr_-38" value="" style="endArrow=none;html=1;rounded=0;fontSize=12;startSize=8;endSize=8;curved=1;exitX=0.5;exitY=1;exitDx=0;exitDy=0;" edge="1" parent="1" source="PyBMAkxGsIOwwzF0yhr_-27">
          <mxGeometry width="50" height="50" relative="1" as="geometry">
            <mxPoint x="342" y="662" as="sourcePoint" />
            <mxPoint x="199" y="738" as="targetPoint" />
          </mxGeometry>
        </mxCell>
        <mxCell id="PyBMAkxGsIOwwzF0yhr_-39" value="" style="endArrow=none;html=1;rounded=0;fontSize=12;startSize=8;endSize=8;curved=1;" edge="1" parent="1">
          <mxGeometry width="50" height="50" relative="1" as="geometry">
            <mxPoint x="199" y="737" as="sourcePoint" />
            <mxPoint x="327" y="737" as="targetPoint" />
          </mxGeometry>
        </mxCell>
      </root>
    </mxGraphModel>
  </diagram>
</mxfile>
